<?xml version="1.0" encoding="UTF-8"?>
<svg version="1.1" xmlns="http://www.w3.org/2000/svg" width="512" height="512">
<path d="M0 0 C8.64656297 2.17654861 15.97069374 10.65007953 22.265625 16.5703125 C23.15507812 17.34568359 23.15507812 17.34568359 24.0625 18.13671875 C33.91859044 27.12453455 40.81010797 40.05284649 47.265625 51.5703125 C48.06162109 51.42883789 48.85761719 51.28736328 49.67773438 51.14160156 C58.96541817 49.63770513 67.96997479 49.25981232 77.36083984 49.30957031 C79.76295192 49.32030056 82.1643165 49.3096026 84.56640625 49.296875 C93.98915722 49.2896245 102.96580115 49.91742883 112.265625 51.5703125 C113.17441406 49.95576172 113.17441406 49.95576172 114.1015625 48.30859375 C123.8367134 31.23968153 139.33010776 5.61734994 159.72265625 -0.12109375 C162.99826418 -0.30948678 165.03875254 0.4228454 167.765625 2.1953125 C169.69664943 5.25276785 169.71085337 7.0084855 169.265625 10.5703125 C167.83361155 14.83184649 164.95610077 16.33654143 161.265625 18.6953125 C147.74038283 27.72023919 136.83659776 40.63628349 130.265625 55.5703125 C130.91144531 55.81523438 131.55726563 56.06015625 132.22265625 56.3125 C139.02591103 59.01146565 145.52667869 62.12938013 152.015625 65.5078125 C152.80686768 65.91435059 153.59811035 66.32088867 154.41333008 66.73974609 C159.76026437 69.56097879 164.53771466 72.80564503 169.265625 76.5703125 C169.6575 75.5184375 170.049375 74.4665625 170.453125 73.3828125 C170.73027344 72.650625 171.00742188 71.9184375 171.29296875 71.1640625 C171.98637391 69.31498208 172.66442079 67.46011177 173.33203125 65.6015625 C177.88170194 53.22886069 183.62560878 42.54727514 192.265625 32.5703125 C192.88050781 31.81105469 193.49539062 31.05179688 194.12890625 30.26953125 C204.83587429 17.43447018 219.56443095 8.80404385 235.265625 3.5703125 C236.65394531 3.08691406 236.65394531 3.08691406 238.0703125 2.59375 C254.48385705 -2.16573311 274.24748507 -1.1123979 290.265625 4.5703125 C291.44898438 4.9828125 292.63234375 5.3953125 293.8515625 5.8203125 C307.55529473 11.14449986 318.37253886 19.8566017 328.265625 30.5703125 C328.92046875 30.38855469 329.5753125 30.20679687 330.25 30.01953125 C335.32811429 28.62089808 340.41330844 27.25310323 345.515625 25.9453125 C346.44890625 25.70554687 347.3821875 25.46578125 348.34375 25.21875 C372.68299191 19.81726049 399.16196385 24.45959867 420.32421875 37.53125 C440.60031196 51.58718713 454.21605242 71.36741436 458.86865234 95.79931641 C462.51050702 121.22062675 457.06429169 145.57449249 442.265625 166.5703125 C441.79511719 167.30765625 441.32460938 168.045 440.83984375 168.8046875 C439.42128823 170.80265302 438.31067153 172.21465949 436.265625 173.5703125 C433.69908601 173.76216342 431.28639198 173.56705895 428.72265625 173.3671875 C425.57884155 173.62708951 424.65930563 174.55780256 422.515625 176.8203125 C421.97292969 177.46484375 421.43023437 178.109375 420.87109375 178.7734375 C419.265625 180.5703125 419.265625 180.5703125 415.828125 182.5703125 C414.9825 183.2303125 414.136875 183.8903125 413.265625 184.5703125 C413.09893182 188.02859272 413.09893182 188.02859272 413.265625 191.5703125 C410.40175733 196.22135079 406.67549398 198.26983666 401.828125 200.4453125 C401.09529297 200.78191895 400.36246094 201.11852539 399.60742188 201.46533203 C370.53991897 214.42671856 370.53991897 214.42671856 357.265625 213.5703125 C359.53525691 216.69105637 361.95194054 219.2265796 364.890625 221.6953125 C400.96015677 252.78286474 423.91083715 303.77821632 428.0546875 350.60058594 C430.39072588 383.48897807 425.55054844 418.82903621 408.47265625 447.58984375 C406.07157097 451.80563102 404.98261439 454.18027696 405.97265625 459.04296875 C407.08279683 462.2861891 408.28839893 465.4557411 409.55224609 468.63964844 C412.62438556 476.95398071 413.53813383 485.83010418 413.703125 494.6328125 C413.72544189 495.33519043 413.74775879 496.03756836 413.77075195 496.76123047 C413.74820717 501.83197818 412.41176534 504.65780464 409.265625 508.5703125 C405.64856515 511.92270943 402.77027632 512.8838815 397.953125 513.1328125 C383.91352041 512.49035415 371.31083345 498.31951123 362.265625 488.5703125 C357.265625 483.06786152 357.265625 483.06786152 357.265625 480.5703125 C356.45472412 480.59967896 356.45472412 480.59967896 355.62744141 480.62963867 C347.55514664 480.78579668 339.63604337 479.87214572 331.640625 478.8828125 C330.55364319 478.74984772 330.55364319 478.74984772 329.44470215 478.61419678 C303.28285718 475.37970148 277.7350006 469.47924201 253.265625 459.5703125 C252.64478027 459.32764648 252.02393555 459.08498047 251.38427734 458.83496094 C229.27069773 450.15422294 209.45326466 436.8752033 192.265625 420.5703125 C191.77094727 420.10818359 191.27626953 419.64605469 190.76660156 419.16992188 C176.44110564 405.71717924 161.98563162 388.73528314 156.265625 369.5703125 C155.59527222 370.09818359 155.59527222 370.09818359 154.91137695 370.63671875 C134.88401933 386.34485231 109.24031452 405.79554712 82.265625 402.5703125 C75.31815934 400.67093227 69.58791082 397.02971758 65.56640625 391.0390625 C60.8666775 382.71320272 59.52688973 375.01592707 62.0390625 365.703125 C65.44185727 356.52919029 70.52247454 351.78958769 79.265625 347.5703125 C81.66859557 346.73799867 84.0866933 345.9485088 86.515625 345.1953125 C98.81901973 341.37465345 109.32193915 334.9621569 118.265625 325.5703125 C118.595625 324.9103125 118.925625 324.2503125 119.265625 323.5703125 C118.44771484 323.33248047 118.44771484 323.33248047 117.61328125 323.08984375 C112.37242052 321.46831248 107.94464936 319.39963942 103.30859375 316.4609375 C101.35970223 315.42334283 101.35970223 315.42334283 99.4609375 315.69921875 C96.18000772 317.00108235 93.08032167 318.63048563 89.953125 320.2578125 C68.67495107 331.01749669 47.14735555 336.68652129 23.265625 336.8203125 C21.88503906 336.85125 21.88503906 336.85125 20.4765625 336.8828125 C10.32769327 336.93998923 1.73270671 334.68815431 -5.734375 327.5703125 C-11.77359106 320.74738138 -13.21739304 313.89912658 -13.04296875 304.890625 C-12.3243049 297.15816583 -9.39872798 291.26452898 -3.66796875 286.0390625 C2.96721791 280.99900152 9.02349848 279.43294372 17.265625 279.5703125 C28.55986997 280.16220252 28.55986997 280.16220252 39.265625 277.5703125 C37.53892578 276.87808594 37.53892578 276.87808594 35.77734375 276.171875 C1.93622548 262.40137222 -31.32854344 242.08106305 -46.27661133 206.95019531 C-51.32033272 194.64063756 -53.27646694 182.81008145 -53.171875 169.5078125 C-53.16883362 168.83321991 -53.16579224 168.15862732 -53.16265869 167.46359253 C-52.98808912 141.15906189 -45.44667864 113.85522739 -28.078125 93.453125 C-25.31484271 91.23328823 -24.31465093 91.14697672 -20.859375 91.5078125 C-20.03695312 91.61738281 -19.21453125 91.72695312 -18.3671875 91.83984375 C-12.70410198 91.26009167 -8.45320853 85.50866051 -4.734375 81.5703125 C-4.074375 80.9103125 -3.414375 80.2503125 -2.734375 79.5703125 C-2.775625 78.6421875 -2.816875 77.7140625 -2.859375 76.7578125 C-2.69291467 72.51307406 -1.75361954 71.57166522 1.265625 68.5703125 C4.59044471 66.60892143 8.06056133 65.02857929 11.578125 63.4453125 C12.50302734 63.01605469 13.42792969 62.58679687 14.38085938 62.14453125 C19.30720064 59.86868063 24.26623109 57.68040151 29.265625 55.5703125 C24.38531281 46.46128294 19.21075358 38.30214591 12.265625 30.5703125 C11.63011719 29.85230469 10.99460938 29.13429688 10.33984375 28.39453125 C5.71688965 23.46529448 0.55738883 19.9541273 -5.1953125 16.4296875 C-7.75821459 14.55285458 -8.71720729 13.52719538 -9.734375 10.5703125 C-10.17960337 7.0084855 -10.16539943 5.25276785 -8.234375 2.1953125 C-5.44543884 0.382504 -3.33569481 -0.18531638 0 0 Z " fill="#020201" transform="translate(52.734375,-0.5703125)"/>
<path d="M0 0 C1.04446289 -0.01297119 2.08892578 -0.02594238 3.16503906 -0.03930664 C10.0884663 -0.04749423 16.5494398 0.71072142 23.3125 2.1875 C22.3359375 6.09375 21.359375 10 20.3828125 13.90625 C20.20637207 14.61442871 20.02993164 15.32260742 19.84814453 16.05224609 C19.49434949 17.46258857 19.13603379 18.8718056 18.77294922 20.27978516 C14.19715418 36.27456132 14.19715418 36.27456132 16.875 51.875 C20.38001372 53.76231508 22.54613485 53.23371254 26.3125 52.1875 C28.25953428 49.26694858 28.60482937 48.34204179 28.953125 45.0390625 C29.05117432 44.20793945 29.14922363 43.37681641 29.25024414 42.52050781 C29.35328857 41.62686523 29.45633301 40.73322266 29.5625 39.8125 C30.58612489 31.82780602 32.15684767 24.17689365 34.375 16.4375 C34.63249023 15.52693848 34.88998047 14.61637695 35.15527344 13.67822266 C36.56832619 8.92813522 36.56832619 8.92813522 37.3125 7.1875 C39.3125 6.1875 39.3125 6.1875 42.48046875 7.12109375 C43.82472067 7.61045234 45.16431542 8.11271906 46.5 8.625 C47.2118042 8.89723389 47.9236084 9.16946777 48.65698242 9.44995117 C60.889695 14.26709691 71.56973056 20.25905159 81.3125 29.1875 C82.23804688 30.02023438 83.16359375 30.85296875 84.1171875 31.7109375 C102.12211942 48.71836627 112.72682035 73.28817171 113.5 97.99609375 C113.99431533 124.68912131 106.53984756 144.88757698 88.1015625 164.49609375 C79.18944777 173.09615965 69.09159656 180.12112473 58.3125 186.1875 C56.61867187 187.15429688 56.61867187 187.15429688 54.890625 188.140625 C46.45980885 192.74636965 37.65505278 195.9946774 28.5625 199.0625 C27.43827637 199.44398193 26.31405273 199.82546387 25.15576172 200.21850586 C7.61337719 205.94455639 -8.84087061 206.96335857 -26.6875 202.1875 C-27.3273584 202.02652832 -27.9672168 201.86555664 -28.62646484 201.69970703 C-51.14639943 196.00545104 -72.08990217 185.3826954 -89.6875 170.1875 C-90.50476563 169.51460937 -91.32203125 168.84171875 -92.1640625 168.1484375 C-108.4291182 154.30047986 -119.85776392 134.70595869 -121.6875 113.1875 C-123.30956502 85.58986596 -117.01761048 62.27031043 -100.35546875 40.08203125 C-98.43597557 37.39100153 -98.43597557 37.39100153 -98.90234375 34.765625 C-99.14082031 33.99734375 -99.37929687 33.2290625 -99.625 32.4375 C-100.0390625 29.86328125 -100.0390625 29.86328125 -99.6875 27.1875 C-96.15879293 22.69923223 -91.85411762 18.50076512 -86.51171875 16.28515625 C-84.6875 16.1875 -84.6875 16.1875 -81.6875 18.1875 C-76.17651238 18.9191174 -72.68011299 16.99249126 -68 14.4375 C-55.02015057 7.65778633 -55.02015057 7.65778633 -48.6875 6.1875 C-47.6975 6.5175 -46.7075 6.8475 -45.6875 7.1875 C-43.90118066 11.36433493 -42.85732829 15.80298359 -41.6875 20.1875 C-41.40648438 21.24066406 -41.12546875 22.29382813 -40.8359375 23.37890625 C-39.68054816 28.04131071 -38.70984916 32.64452441 -38.19921875 37.421875 C-38.12203613 38.14076904 -38.04485352 38.85966309 -37.96533203 39.6003418 C-37.8250079 41.0011966 -37.70143932 42.40386256 -37.59716797 43.80786133 C-37.28317603 47.07526311 -36.82638772 49.00113687 -34.84765625 51.65625 C-32.63577396 53.5445514 -32.63577396 53.5445514 -29.0625 53.125 C-25.43233076 52.5124155 -25.43233076 52.5124155 -23.6875 49.1875 C-21.70107399 36.75298916 -26.46362597 22.27691323 -29.8203125 10.359375 C-30.56295132 7.64305643 -31.17763562 4.95533518 -31.6875 2.1875 C-21.31018549 -0.06596793 -10.57258118 0.06941279 0 0 Z " fill="#F4C855" transform="translate(136.6875,63.8125)"/>
<path d="M0 0 C21.38232766 17.87928993 36.59679307 43.03507113 40 71 C40.04479007 73.36806747 40.040413 75.73746875 39.9921875 78.10546875 C39.96705078 80.07483398 39.96705078 80.07483398 39.94140625 82.08398438 C39.91035912 84.14467608 39.8746101 86.20496552 39.82861328 88.26538086 C39.78624933 90.27433672 39.76395228 92.28368414 39.7421875 94.29296875 C39.7201123 95.4843042 39.69803711 96.67563965 39.67529297 97.90307617 C40.03067521 101.29256765 40.53996509 102.67083302 43 105 C46.5 105.66666667 46.5 105.66666667 50 105 C53.19830847 102.0149121 53.90033278 98.73370704 54.14526367 94.47314453 C54.294802 75.76638245 53.018271 59.74618371 47 42 C46.33333333 40 45.66666667 38 45 36 C52.62499833 35.5425001 59.63397839 37.15030204 67 39 C68.00111816 39.24943359 68.00111816 39.24943359 69.02246094 39.50390625 C77.47358236 41.66368172 85.54250756 44.41546039 93.5 48 C94.23645752 48.3199292 94.97291504 48.6398584 95.73168945 48.96948242 C100.68880035 51.3107504 100.68880035 51.3107504 102.0546875 54.3359375 C100.97414531 106.9737783 57.23114891 164.30968868 20.83642578 199.27734375 C16.75168188 203.1090312 12.42501286 206.57438635 8 210 C6.93565052 210.86361102 5.8732491 211.72962678 4.8125 212.59765625 C-3.508476 219.35209154 -12.24100354 225.25172804 -21.32104492 230.93774414 C-22.89623564 231.93434946 -24.44906898 232.96604598 -26 234 C-27.9453125 233.98828125 -27.9453125 233.98828125 -30 233 C-33.09734217 228.95589939 -35.51709188 224.44328841 -38 220 C-38.93392578 218.33904297 -38.93392578 218.33904297 -39.88671875 216.64453125 C-44.01894852 208.89058029 -44.01894852 208.89058029 -43.94921875 205.61328125 C-42.60162205 201.90323109 -40.50626223 198.90697844 -38.25 195.6875 C-35.42270909 191.63904332 -32.87498871 187.84238896 -30.875 183.3125 C-28.8352 179.95623334 -26.32760069 179.26096152 -22.60668945 178.29418945 C-20.47843854 177.80757002 -18.34555124 177.35711828 -16.20703125 176.91796875 C-2.31462841 174.04988013 10.22935979 167.0527424 21 158 C21.73992187 157.40574219 22.47984375 156.81148437 23.2421875 156.19921875 C30.161386 150.41725876 37.64257807 142.53642384 41 134 C40.92421045 130.38537214 40.92421045 130.38537214 40 127 C36.98662264 124.99108176 35.52728887 124.39446646 31.9609375 125.00390625 C27.34989507 127.34616884 24.78018674 132.8066478 22 137 C12.81063562 149.84953493 -2.27329233 158.18035022 -17 163 C-17.99 163 -18.98 163 -20 163 C-19.125 156.25 -19.125 156.25 -18 154 C-17.37153726 148.58208384 -17.37153726 148.58208384 -19.5625 143.9375 C-23.16264088 142.55283043 -25.33726697 142.86788252 -29 144 C-31.44720309 148.08876753 -32.81113635 152.33349683 -34.1875 156.875 C-43.83189022 186.85444315 -65.92243891 212.472655 -93.83740234 226.953125 C-116.73612294 238.48222033 -116.73612294 238.48222033 -126 237 C-129.60937158 235.19531421 -131.58066396 233.58165967 -133.9375 230.3125 C-135.3575727 225.88521451 -135.40161776 222.44376539 -134 218 C-130.91418086 212.75864544 -126.53503178 211.28837913 -120.8984375 209.82421875 C-105.61516191 205.47816599 -93.35322607 196.83717034 -82 186 C-81.38640625 185.46117187 -80.7728125 184.92234375 -80.140625 184.3671875 C-70.33906365 175.41989067 -61.02808869 159.9412931 -58.875 146.875 C-58.64134208 143.09461132 -58.64134208 143.09461132 -60.5 140.875 C-64.22925883 139.56975941 -66.24914991 139.72739015 -70 141 C-71.69531382 143.72277674 -72.79680291 146.06636215 -74 149 C-75.06951121 151.17352279 -76.15339487 153.3400202 -77.25 155.5 C-77.77078125 156.5415625 -78.2915625 157.583125 -78.828125 158.65625 C-79.21484375 159.4296875 -79.6015625 160.203125 -80 161 C-95.15279954 157.76094948 -108.2604058 148.71032148 -120 139 C-121.41539062 137.92685547 -121.41539062 137.92685547 -122.859375 136.83203125 C-123.56578125 136.22746094 -124.2721875 135.62289062 -125 135 C-125 134.34 -125 133.68 -125 133 C-123.39511719 132.83177734 -123.39511719 132.83177734 -121.7578125 132.66015625 C-83.95446285 128.03581602 -44.00830236 108.06047875 -20 78 C-7.8769371 61.77274921 0.18858161 42.4308612 0.09765625 21.97265625 C0.09443359 20.68681641 0.09121094 19.40097656 0.08789062 18.07617188 C0.07953802 16.73828055 0.07107311 15.40038993 0.0625 14.0625 C0.05747659 12.69726726 0.05291517 11.33203274 0.04882812 9.96679688 C0.03708851 6.64448543 0.02066679 3.32226592 0 0 Z " fill="#757577" transform="translate(264,150)"/>
<path d="M0 0 C3.66101999 3.00081854 6.96617469 6.28059118 10.24755859 9.68798828 C10.91142578 10.33251953 11.57529297 10.97705078 12.25927734 11.64111328 C24.92681924 24.73565097 29.92854193 42.9285913 29.78881836 60.70239258 C29.20065329 77.23237536 23.18610157 92.95988852 13.24755859 106.12548828 C10.73489794 109.527933 10.24014258 110.22077926 10.31005859 114.62548828 C10.61943359 115.63611328 10.92880859 116.64673828 11.24755859 117.68798828 C11.24755859 120.68798828 11.24755859 120.68798828 9.92724609 122.37158203 C2.5594852 129.53202498 2.5594852 129.53202498 -1.75244141 131.68798828 C-4.18994141 130.93798828 -4.18994141 130.93798828 -6.75244141 129.68798828 C-12.43149851 129.15729969 -15.99583426 130.49662326 -20.81494141 133.25048828 C-36.24654903 141.45386699 -53.38928334 146.0283063 -70.75244141 147.68798828 C-71.89841797 147.81431641 -73.04439453 147.94064453 -74.22509766 148.07080078 C-79.21959704 147.52876209 -82.55574621 145.26812155 -86.75244141 142.62548828 C-88.44772544 141.60547496 -90.14567341 140.5898767 -91.84619141 139.57861328 C-92.68021484 139.08167969 -93.51423828 138.58474609 -94.37353516 138.07275391 C-106.91386461 130.77300548 -120.69716915 126.1218465 -134.75244141 122.68798828 C-133.67302997 119.44975398 -133.02866495 118.81086521 -130.50244141 116.68798828 C-129.77283203 116.07181641 -129.04322266 115.45564453 -128.29150391 114.82080078 C-127.45361328 114.11697266 -126.61572266 113.41314453 -125.75244141 112.68798828 C-124.83205078 111.88103516 -123.91166016 111.07408203 -122.96337891 110.24267578 C-114.00945457 102.42794603 -104.49375037 95.48490875 -94.75244141 88.68798828 C-94.1051709 88.23536621 -93.45790039 87.78274414 -92.79101562 87.31640625 C-82.47340681 80.14921234 -71.71508751 73.81260704 -60.75244141 67.68798828 C-59.61597168 67.04579346 -59.61597168 67.04579346 -58.45654297 66.390625 C-42.80203424 57.59553892 -26.12562101 50.12244216 -8.78271484 45.35473633 C-5.82492788 44.38338999 -4.32781505 43.38862881 -2.75244141 40.68798828 C-2.66327986 37.06148878 -2.66327986 37.06148878 -3.75244141 33.68798828 C-7.9919654 30.86163895 -10.89887172 31.73366645 -15.75244141 32.68798828 C-19.15915048 33.60994284 -22.44676701 34.76765297 -25.75244141 36.00048828 C-26.69740479 36.35022705 -27.64236816 36.69996582 -28.6159668 37.06030273 C-70.80238551 53.11274759 -122.40470512 81.33565469 -151.18603516 117.48876953 C-154.59712216 120.10025011 -159.31167684 119.31951909 -163.40478516 119.23486328 C-166.89658475 118.66444094 -168.05697633 118.30971253 -170.18994141 115.56298828 C-171.60493685 113.21336485 -171.76108511 111.86599448 -171.62744141 109.11376953 C-170.36661156 104.17739552 -168.37160558 99.65321899 -166.31494141 95.00048828 C-165.86683105 93.98245117 -165.4187207 92.96441406 -164.95703125 91.91552734 C-154.70616685 68.93265193 -142.20763659 47.77293382 -125.75244141 28.68798828 C-124.94935547 27.74310547 -124.14626953 26.79822266 -123.31884766 25.82470703 C-109.63884959 10.14513706 -93.94677632 -1.45506775 -74.75244141 -9.31201172 C-73.68251953 -9.76833984 -72.61259766 -10.22466797 -71.51025391 -10.69482422 C-49.12087128 -18.6790679 -19.06546926 -14.27386902 0 0 Z " fill="#B4E7EF" transform="translate(467.75244140625,52.31201171875)"/>
<path d="M0 0 C1.85408125 -0.02740022 3.70828469 -0.04657422 5.5625 -0.0625 C6.59503906 -0.07410156 7.62757813 -0.08570312 8.69140625 -0.09765625 C12.19185144 0.00566268 15.54453181 0.44660219 19 1 C18.0234375 4.90625 17.046875 8.8125 16.0703125 12.71875 C15.89387207 13.42692871 15.71743164 14.13510742 15.53564453 14.86474609 C15.18184949 16.27508857 14.82353379 17.6843056 14.46044922 19.09228516 C9.88465418 35.08706132 9.88465418 35.08706132 12.5625 50.6875 C16.06751372 52.57481508 18.23363485 52.04621254 22 51 C23.94703428 48.07944858 24.29232937 47.15454179 24.640625 43.8515625 C24.73867432 43.02043945 24.83672363 42.18931641 24.93774414 41.33300781 C25.04078857 40.43936523 25.14383301 39.54572266 25.25 38.625 C26.27362489 30.64030602 27.84434767 22.98939365 30.0625 15.25 C30.31999023 14.33943848 30.57748047 13.42887695 30.84277344 12.49072266 C32.25582619 7.74063522 32.25582619 7.74063522 33 6 C35 5 35 5 38.16796875 5.93359375 C39.51222067 6.42295234 40.85181542 6.92521906 42.1875 7.4375 C43.2552063 7.84585083 43.2552063 7.84585083 44.34448242 8.26245117 C56.577195 13.07959691 67.25723056 19.07155159 77 28 C77.92554688 28.83273438 78.85109375 29.66546875 79.8046875 30.5234375 C97.80961942 47.53086627 108.41432035 72.10067171 109.1875 96.80859375 C109.68181533 123.50162131 102.22734756 143.70007698 83.7890625 163.30859375 C74.8809385 171.90480864 64.78218132 178.94877579 54 185 C53.32549805 185.37882324 52.65099609 185.75764648 51.95605469 186.14794922 C49.81696597 187.33304126 47.66300595 188.48422306 45.5 189.625 C44.8292041 189.99262451 44.1584082 190.36024902 43.46728516 190.73901367 C40.58707318 192.20817603 38.65213601 193.11328647 35.4140625 192.55078125 C32.26094099 190.52523232 29.56990782 188.14589719 26.875 185.5625 C26.3073291 185.02536377 25.7396582 184.48822754 25.15478516 183.93481445 C23.98897548 182.82711621 22.8266923 181.71569461 21.66796875 180.60058594 C20.15614193 179.14983409 18.62594429 177.71828674 17.09375 176.2890625 C0.80234657 160.69987474 -10.35974099 141.07827083 -18 120 C-18 119.34 -18 118.68 -18 118 C-16.73308493 117.32591692 -15.46129251 116.66099503 -14.1875 116 C-13.47980469 115.62875 -12.77210938 115.2575 -12.04296875 114.875 C-10 114 -10 114 -7 114 C-5.60639406 114.62684283 -4.23289536 115.29915078 -2.875 116 C1.88582599 118.14930494 5.82634108 119.02581168 11 118 C18.17280029 115.24573845 23.15096286 111.13832121 26.3125 104.0625 C27.3637582 99.37962257 28.06474585 95.70359336 25.4375 91.5 C22.96231963 89.67508765 22.96231963 89.67508765 19.375 90.0625 C15.74483076 90.6750845 15.74483076 90.6750845 14 94 C13.71125 95.155 13.4225 96.31 13.125 97.5 C12 101 12 101 10.25 103 C7.04551215 104.42421682 5.29428386 104.12145834 2 103 C-0.21477269 100.21102699 -1.12033951 97.63898147 -2.25 94.25 C-3.70588848 90.66718768 -3.70588848 90.66718768 -7.4375 89.8125 C-10.95993975 89.70058471 -10.95993975 89.70058471 -13.3125 91.5 C-15.36675667 94.54334321 -16.08310093 97.46338931 -17 101 C-17.99 101.99 -17.99 101.99 -19 103 C-19.99 103 -20.98 103 -22 103 C-29.33854298 67.09355754 -18.09680601 30.96473805 0 0 Z " fill="#F6E868" transform="translate(141,65)"/>
<path d="M0 0 C5.68388256 2.59601843 8.90735335 7.58127064 12.69970703 12.37744141 C13.92425494 13.90548222 15.19330763 15.39755046 16.46484375 16.88671875 C17.19832031 17.79035156 17.93179688 18.69398438 18.6875 19.625 C19.35136719 20.42164063 20.01523437 21.21828125 20.69921875 22.0390625 C24.13738439 29.86527738 19.94788317 39.75630181 17.625 47.5 C17.2748584 48.66982422 16.9247168 49.83964844 16.56396484 51.04492188 C5.62462727 86.41876595 -12.63356412 119.12273596 -37 147 C-37.46180664 147.52948242 -37.92361328 148.05896484 -38.39941406 148.60449219 C-41.51731376 152.14827322 -44.7275523 155.59841921 -48 159 C-48.5480127 159.56992676 -49.09602539 160.13985352 -49.66064453 160.72705078 C-57.04342457 168.35709111 -64.56241198 175.52748182 -73 182 C-73.60070312 182.46647949 -74.20140625 182.93295898 -74.8203125 183.41357422 C-81.76498794 188.79673523 -88.78802069 194.06613054 -96.1875 198.8125 C-97.19167969 199.45832031 -98.19585937 200.10414063 -99.23046875 200.76953125 C-102.55802726 202.24792467 -103.60021287 202.20292318 -107 201 C-109.55027305 199.8687395 -112.01908097 198.703476 -114.5 197.4375 C-115.19617432 197.0854248 -115.89234863 196.73334961 -116.60961914 196.37060547 C-135.0489116 186.9021768 -135.0489116 186.9021768 -137 183 C-136.27296875 182.52691406 -135.5459375 182.05382812 -134.796875 181.56640625 C-120.46098231 172.1377999 -107.01781721 161.67890118 -94.3359375 150.1171875 C-92.23081252 148.20919797 -90.09386366 146.34952931 -87.9375 144.5 C-80.71928604 138.19861563 -74.20389141 131.28831145 -68 124 C-67.20078125 123.08992188 -66.4015625 122.17984375 -65.578125 121.2421875 C-34.90245106 86.05987538 -13.87251863 44.32033208 0 0 Z " fill="#F6E868" transform="translate(413,241)"/>
<path d="M0 0 C7.62499833 -0.4574999 14.63397839 1.15030204 22 3 C22.66741211 3.16628906 23.33482422 3.33257812 24.02246094 3.50390625 C32.47358236 5.66368172 40.54250756 8.41546039 48.5 12 C49.23645752 12.3199292 49.97291504 12.6398584 50.73168945 12.96948242 C55.68880035 15.3107504 55.68880035 15.3107504 57.0546875 18.3359375 C55.97414531 70.9737783 12.23114891 128.30968868 -24.16357422 163.27734375 C-28.24831812 167.1090312 -32.57498714 170.57438635 -37 174 C-38.06434948 174.86361102 -39.1267509 175.72962678 -40.1875 176.59765625 C-48.508476 183.35209154 -57.24100354 189.25172804 -66.32104492 194.93774414 C-67.89623564 195.93434946 -69.44906898 196.96604598 -71 198 C-72.9453125 197.98828125 -72.9453125 197.98828125 -75 197 C-78.09734217 192.95589939 -80.51709188 188.44328841 -83 184 C-83.93392578 182.33904297 -83.93392578 182.33904297 -84.88671875 180.64453125 C-89.01894852 172.89058029 -89.01894852 172.89058029 -88.94921875 169.61328125 C-87.60162205 165.90323109 -85.50626223 162.90697844 -83.25 159.6875 C-80.42270909 155.63904332 -77.87498871 151.84238896 -75.875 147.3125 C-73.8352 143.95623334 -71.32760069 143.26096152 -67.60668945 142.29418945 C-65.47843854 141.80757002 -63.34555124 141.35711828 -61.20703125 140.91796875 C-47.31462841 138.04988013 -34.77064021 131.0527424 -24 122 C-23.26007813 121.40574219 -22.52015625 120.81148438 -21.7578125 120.19921875 C-14.8466223 114.42395082 -7.34162161 106.53371109 -4 98 C-4.29494049 94.7556546 -4.80061792 91.73225443 -5.65625 88.58984375 C-6.07272657 85.45207144 -5.45874122 83.87489181 -4.1875 81 C-3.83042969 80.175 -3.47335937 79.35 -3.10546875 78.5 C-2.74066406 77.675 -2.37585938 76.85 -2 76 C-1.52820313 74.65035156 -1.52820313 74.65035156 -1.046875 73.2734375 C0 71 0 71 2.9375 69.625 C6.24914055 67.86780297 7.07349286 66.67699401 8.41772461 63.25195312 C9.63119968 58.55883194 9.39196522 53.75251721 9.3125 48.9375 C9.30049561 47.81931885 9.28849121 46.7011377 9.27612305 45.54907227 C9.03657941 31.51385366 6.4907229 19.2418752 2 6 C1.33333333 4 0.66666667 2 0 0 Z " fill="#F3C855" transform="translate(309,186)"/>
<path d="M0 0 C3.43485528 2.89859255 6.75254047 5.89342808 10 9 C8.79582231 12.61253308 7.88002897 12.98062647 4.75 15 C-20.66105366 32.25486668 -38.88291767 56.61140892 -54 83 C-55.01863292 79.81176992 -54.94631659 77.64509796 -54.25 74.38671875 C-54.05752686 73.48010498 -53.86505371 72.57349121 -53.66674805 71.6394043 C-53.44672119 70.66527588 -53.22669434 69.69114746 -53 68.6875 C-52.7728833 67.67147705 -52.5457666 66.6554541 -52.31176758 65.60864258 C-48.76506781 50.19610217 -44.61009681 34.98534654 -37.40112305 20.84448242 C-35.13326634 16.21248944 -34.50182836 13.16610911 -36 8 C-39.49565336 5.66956442 -40.8865729 5.41236756 -45 6 C-49.4987278 10.37814334 -51.46977987 16.21576632 -53.75 21.9375 C-54.18320557 23.02272949 -54.61641113 24.10795898 -55.06274414 25.22607422 C-63.88517613 48.07867991 -69.06798486 72.31425588 -72.125 96.5625 C-72.4591383 99.16820375 -72.79603754 101.77354091 -73.1328125 104.37890625 C-73.27605957 105.5088501 -73.41930664 106.63879395 -73.56689453 107.80297852 C-73.98390753 110.88121141 -74.47234775 113.93898125 -75 117 C-75.928125 116.195625 -76.85625 115.39125 -77.8125 114.5625 C-81.0375531 111.80285091 -84.29073841 109.07911989 -87.5625 106.375 C-88.45066406 105.64023438 -89.33882813 104.90546875 -90.25390625 104.1484375 C-92.95510909 101.92187076 -92.95510909 101.92187076 -96.07421875 100.28125 C-100.07471852 97.16203523 -101.33624088 93.72809669 -103.25 89.125 C-107.46442116 79.59431835 -112.56471727 70.43528273 -120 63 C-121.1188576 44.29909432 -111.70337359 26.13297244 -99.91796875 12.19140625 C-74.53677257 -16.34856645 -31.26392857 -23.62267032 0 0 Z " fill="#99DEE9" transform="translate(357,29)"/>
<path d="M0 0 C3.90376931 1.36145691 6.69142685 3.12584066 9.875 5.75 C10.73609375 6.45640625 11.5971875 7.1628125 12.484375 7.890625 C15.67875959 10.56914624 18.85419413 13.26451664 22 16 C16.89309581 35.66914151 9.92644821 54.74872734 1 73 C0.56880859 73.89219238 0.13761719 74.78438477 -0.30664062 75.70361328 C-14.77584852 105.38204935 -34.34569866 131.34790697 -56.75 155.4375 C-57.35158936 156.08759033 -57.95317871 156.73768066 -58.57299805 157.4074707 C-62.80680902 161.91323619 -67.30240036 165.98554607 -72 170 C-73.06029333 170.93688214 -74.11899607 171.87556877 -75.17578125 172.81640625 C-84.66556367 181.1656694 -94.69715227 188.68610513 -105 196 C-105.61166016 196.43876465 -106.22332031 196.8775293 -106.85351562 197.32958984 C-108.36749989 198.4063689 -109.90153956 199.45480767 -111.4375 200.5 C-112.64212891 201.31984375 -112.64212891 201.31984375 -113.87109375 202.15625 C-116 203 -116 203 -117.90356445 202.265625 C-120.15002962 200.90942663 -121.81411038 199.44461576 -123.671875 197.59375 C-124.33574219 196.93246094 -124.99960938 196.27117187 -125.68359375 195.58984375 C-126.36550781 194.90019531 -127.04742187 194.21054687 -127.75 193.5 C-128.44738281 192.81035156 -129.14476562 192.12070312 -129.86328125 191.41015625 C-130.85134766 190.41822266 -130.85134766 190.41822266 -131.859375 189.40625 C-132.46233398 188.80103516 -133.06529297 188.19582031 -133.68652344 187.57226562 C-135 186 -135 186 -135 184 C-132.6533649 182.41525942 -130.3055981 180.94587017 -127.875 179.5 C-115.03267028 171.65357491 -103.31204856 162.91640621 -92 153 C-90.75863281 151.92685547 -90.75863281 151.92685547 -89.4921875 150.83203125 C-78.05493604 140.77253451 -67.3694292 130.01160823 -58 118 C-57.39671875 117.28714844 -56.7934375 116.57429688 -56.171875 115.83984375 C-44.78029479 102.27046144 -35.10775431 86.7393996 -27 71 C-26.35683838 69.75259033 -26.35683838 69.75259033 -25.70068359 68.47998047 C-15.13981924 47.74412229 -7.01531932 26.02164336 -1.6484375 3.37109375 C-1 1 -1 1 0 0 Z " fill="#838384" transform="translate(380,212)"/>
<path d="M0 0 C2.49897946 2.22952506 3.70887098 4.21352476 4.9375 7.31640625 C5.44410156 8.58774414 5.44410156 8.58774414 5.9609375 9.88476562 C6.30382812 10.76841797 6.64671875 11.65207031 7 12.5625 C7.34289062 13.41908203 7.68578125 14.27566406 8.0390625 15.15820312 C15.50555295 34.09516076 15.50555295 34.09516076 11.3203125 44.3203125 C10.59995157 45.92703933 9.86749567 47.52838133 9.125 49.125 C8.72861328 49.98883301 8.33222656 50.85266602 7.92382812 51.74267578 C0.95197439 66.74297039 -6.62198352 81.35687208 -16 95 C-16.45487793 95.6698291 -16.90975586 96.3396582 -17.37841797 97.02978516 C-24.06427955 106.84748033 -31.15194367 116.08801259 -39 125 C-39.91845703 126.06734375 -39.91845703 126.06734375 -40.85546875 127.15625 C-42.55125157 129.121908 -44.27164582 131.06292508 -46 133 C-46.7734375 133.87785156 -47.546875 134.75570312 -48.34375 135.66015625 C-55.77282983 143.95232035 -63.69080762 151.59379639 -72 159 C-72.61875 159.56299805 -73.2375 160.12599609 -73.875 160.70605469 C-75.66182883 162.31590418 -77.4789579 163.88123639 -79.3125 165.4375 C-80.1010437 166.15595093 -80.1010437 166.15595093 -80.90551758 166.88891602 C-84.19372412 169.57862129 -86.62185066 170.28356207 -90.7265625 169.96875 C-96.28492797 169.10348571 -101.67209246 167.64880907 -107.0625 166.0625 C-108.01060547 165.79759766 -108.95871094 165.53269531 -109.93554688 165.25976562 C-115.11040748 163.76480589 -115.11040748 163.76480589 -117 163 C-117.33 162.34 -117.66 161.68 -118 161 C-116.92363281 160.26136719 -115.84726562 159.52273438 -114.73828125 158.76171875 C-105.97042208 152.6916624 -97.56631788 146.4408706 -89.56860352 139.38012695 C-88.44547712 138.39195053 -87.31486544 137.41225617 -86.17944336 136.43823242 C-72.77182623 124.88636386 -60.48278421 112.25799125 -50 98 C-49.26136719 97.05640625 -48.52273438 96.1128125 -47.76171875 95.140625 C-29.52942645 71.69448001 -16.04865609 44.84965272 -6 17 C-5.64228516 16.0205542 -5.28457031 15.0411084 -4.91601562 14.03198242 C-3.21483527 9.3733477 -1.53030828 4.71845053 0 0 Z " fill="#838384" transform="translate(446,288)"/>
<path d="M0 0 C3.80382174 2.4031897 6.34974841 5.32702901 7.828125 9.6484375 C7.89 10.1846875 7.951875 10.7209375 8.015625 11.2734375 C7.09523438 11.57894531 6.17484375 11.88445312 5.2265625 12.19921875 C0.66452506 15.14622834 0.11552153 18.40804253 -1.359375 23.4609375 C-11.42071105 54.68228372 -32.47980837 81.0058547 -61.82177734 96.2265625 C-84.72049794 107.75565783 -84.72049794 107.75565783 -93.984375 106.2734375 C-97.59374658 104.46875171 -99.56503896 102.85509717 -101.921875 99.5859375 C-103.3419477 95.15865201 -103.38599276 91.71720289 -101.984375 87.2734375 C-98.89855586 82.03208294 -94.51940678 80.56181663 -88.8828125 79.09765625 C-73.59953691 74.75160349 -61.33760107 66.11060784 -49.984375 55.2734375 C-49.37078125 54.73460937 -48.7571875 54.19578125 -48.125 53.640625 C-38.36559978 44.7318147 -28.92404037 29.19412554 -26.921875 16.1484375 C-26.56849083 12.37884596 -26.56849083 12.37884596 -28.48828125 10.53125 C-28.98199219 10.11617188 -29.47570312 9.70109375 -29.984375 9.2734375 C-28.209687 3.46536769 -24.94656835 1.33000315 -19.734375 -1.4765625 C-12.56386069 -3.86673394 -6.781102 -3.34313071 0 0 Z " fill="#838384" transform="translate(231.984375,280.7265625)"/>
<path d="M0 0 C0.33 0 0.66 0 1 0 C1.75856579 30.93197896 -1.82310109 56.92227746 -15.0625 85.25 C-15.46162598 86.10730713 -15.86075195 86.96461426 -16.27197266 87.84790039 C-21.84988095 99.37005785 -28.59493955 107.33788746 -40.68359375 112.0546875 C-54.33046327 115.9446079 -71.08767962 111.75884688 -85 110 C-80.69556105 105.6277746 -76.23053935 101.44066263 -71.75 97.25 C-63.12969731 89.146513 -54.76255519 81.18527674 -47.3671875 71.921875 C-45.33659716 69.41546976 -43.24288552 66.98502267 -41.11303711 64.56323242 C-24.35123123 45.33954568 -11.59460828 22.60363029 0 0 Z " fill="#F5E768" transform="translate(464,352)"/>
<path d="M0 0 C5.93533312 0.74836809 9.9394973 3.00970295 15 6 C14.53764074 12.78454191 13.41648685 18.95717191 11.375 25.4375 C11.10921143 26.29730469 10.84342285 27.15710938 10.56958008 28.04296875 C1.21483275 57.83009554 -11.78694741 85.59166738 -30 111 C-30.66 111.99 -31.32 112.98 -32 114 C-32.66 114 -33.32 114 -34 114 C-34.42098222 86.71711352 -34.42098222 86.71711352 -32 74 C-31.88172852 73.33581055 -31.76345703 72.67162109 -31.64160156 71.98730469 C-27.04183938 46.57742253 -16.61978206 19.99262019 0 0 Z " fill="#F6E868" transform="translate(351,197)"/>
<path d="M0 0 C2.22366281 2.05732271 3.66199244 3.95598948 5.015625 6.66015625 C5.37664307 7.36712646 5.73766113 8.07409668 6.10961914 8.80249023 C6.67410767 9.92119507 6.67410767 9.92119507 7.25 11.0625 C10.3669109 17.12362375 13.66186135 22.76386659 17.78515625 28.21484375 C19 30 19 30 19 32 C19.66 32.33 20.32 32.66 21 33 C-8.57853028 59.3924185 -8.57853028 59.3924185 -21 64 C-25.57653484 63.71153017 -29.47873125 61.48949351 -33.5 59.4375 C-34.54426147 58.90938721 -34.54426147 58.90938721 -35.60961914 58.37060547 C-54.0489116 48.9021768 -54.0489116 48.9021768 -56 45 C-55.27296875 44.52691406 -54.5459375 44.05382812 -53.796875 43.56640625 C-39.46955134 34.14343569 -26.03877926 23.68938175 -13.359375 12.140625 C-10.50708659 9.55278717 -7.6050782 7.026101 -4.69140625 4.5078125 C-3.0657466 3.05861014 -1.52324139 1.555849 0 0 Z " fill="#F3C855" transform="translate(332,379)"/>
<path d="M0 0 C2 1 2 1 2.79370117 3.23730469 C3.60267481 6.40571888 4.40650126 9.57455102 5.1875 12.75 C5.47302734 13.84828125 5.75855469 14.9465625 6.05273438 16.078125 C6.31763672 17.1403125 6.58253906 18.2025 6.85546875 19.296875 C7.09934326 20.26979492 7.34321777 21.24271484 7.59448242 22.24511719 C8.13583572 25.92279967 7.83703078 28.71601104 5.79296875 31.8515625 C-9.54897535 48.79862484 -28.08229362 62.9672025 -47.00195312 75.65771484 C-48.62936293 76.75100653 -50.23261239 77.88019421 -51.828125 79.01953125 C-52.54484375 79.34308594 -53.2615625 79.66664063 -54 80 C-57.17851785 78.78973699 -59.28309533 76.97365887 -61.671875 74.59375 C-62.33574219 73.93246094 -62.99960938 73.27117187 -63.68359375 72.58984375 C-64.36550781 71.90019531 -65.04742187 71.21054687 -65.75 70.5 C-66.44738281 69.81035156 -67.14476562 69.12070312 -67.86328125 68.41015625 C-68.85134766 67.41822266 -68.85134766 67.41822266 -69.859375 66.40625 C-70.46233398 65.80103516 -71.06529297 65.19582031 -71.68652344 64.57226562 C-73 63 -73 63 -73 61 C-70.6533649 59.41525942 -68.3055981 57.94587017 -65.875 56.5 C-53.03267028 48.65357491 -41.31204856 39.91640621 -30 30 C-29.17242187 29.28457031 -28.34484375 28.56914062 -27.4921875 27.83203125 C-22.20352481 23.18045169 -17.17881 18.2784366 -12.1875 13.3125 C-11.55279785 12.6824707 -10.9180957 12.05244141 -10.26416016 11.40332031 C-6.62553922 7.75218891 -3.23609297 4.01275528 0 0 Z " fill="#747476" transform="translate(318,335)"/>
<path d="M0 0 C6.45619508 3.43393268 11.57810901 8.2382391 14.19921875 15.1484375 C15.22220682 22.30935402 14.71667718 27.37493109 10.51171875 33.3359375 C4.36631512 40.58928649 -3.47933075 43.64778142 -12.796875 44.71484375 C-22.66150623 45.07503641 -29.82873676 42.82372399 -37.42578125 36.5234375 C-42.41305479 31.73882702 -44.5510769 27.370899 -44.98828125 20.4609375 C-44.85102144 14.86760031 -42.56796241 10.88946608 -39.48828125 6.3359375 C-38.90175781 6.83222656 -38.31523437 7.32851562 -37.7109375 7.83984375 C-35.44212203 9.67536887 -35.44212203 9.67536887 -31.92578125 9.2734375 C-28.52406851 8.6225751 -28.52406851 8.6225751 -26.61328125 6.6484375 C-25.27040934 3.88808968 -24.83352811 1.37410991 -24.48828125 -1.6640625 C-16.50832231 -4.32404881 -7.65933649 -3.1531867 0 0 Z " fill="#FEA1AB" transform="translate(227.48828125,151.6640625)"/>
<path d="M0 0 C0.74056641 0.00451172 1.48113281 0.00902344 2.24414062 0.01367188 C4.05862899 0.02537825 5.87307534 0.04331102 7.6875 0.0625 C7.86925781 0.67738281 8.05101562 1.29226562 8.23828125 1.92578125 C8.48964844 2.73402344 8.74101563 3.54226562 9 4.375 C9.24363281 5.17550781 9.48726562 5.97601563 9.73828125 6.80078125 C10.74953708 9.21031675 11.63242172 10.46523619 13.6875 12.0625 C17.64480595 12.48348999 20.29018371 12.15315618 23.6875 10.0625 C27.94018735 15.13828813 29.18153172 18.75257726 29.0859375 25.30078125 C28.22112273 31.29513459 25.03294816 36.07092648 20.4609375 39.953125 C10.7513735 46.64265739 1.24383133 47.48157091 -10.3125 46.0625 C-19.17956781 43.43418138 -25.03114754 38.58113823 -29.6875 30.75 C-31.24062501 24.07156244 -31.09007765 17.90556867 -27.64453125 11.87890625 C-23.58553103 6.34390595 -17.81019637 2.24995691 -11.15234375 0.4921875 C-7.42892295 -0.07119116 -3.75440599 -0.04361687 0 0 Z " fill="#FEA1AB" transform="translate(53.3125,148.9375)"/>
<path d="M0 0 C3.12814134 1.38193305 5.18238388 3.73449764 7.48828125 6.18359375 C11.19672821 10.01571745 14.91306398 13.64153157 19.11328125 16.93359375 C15.69384499 20.98362735 11.98576596 22.55086944 7.17578125 24.43359375 C6.41869873 24.73547607 5.66161621 25.0373584 4.8815918 25.34838867 C-10.91199664 31.55223945 -25.48241764 34.07995232 -42.38671875 34.30859375 C-43.52133545 34.33469727 -44.65595215 34.36080078 -45.82495117 34.38769531 C-52.13183028 34.40083758 -56.16067999 34.29609107 -60.88671875 29.93359375 C-63.528729 25.88251137 -64.58908759 22.74983725 -63.88671875 17.93359375 C-61.7529707 14.04712409 -59.66816852 11.25220516 -55.88671875 8.93359375 C-53.34741211 8.56469727 -53.34741211 8.56469727 -50.4765625 8.5625 C-49.41300537 8.54791748 -48.34944824 8.53333496 -47.25366211 8.51831055 C-46.1219458 8.510979 -44.99022949 8.50364746 -43.82421875 8.49609375 C-29.53888315 8.17582142 -12.85690563 -0.45252049 0 0 Z " fill="#838384" transform="translate(118.88671875,286.06640625)"/>
<path d="M0 0 C4.7939781 1.42043796 4.7939781 1.42043796 6.375 4 C6.92408925 6.04546226 7.37726064 8.07514546 7.75 10.16015625 C8.29882793 12.38935118 8.29882793 12.38935118 11.375 14 C14.45165027 13.91778291 14.45165027 13.91778291 17.375 13 C19.56278782 10.0826827 19.56278782 10.0826827 20.25 6.5 C21.375 3 21.375 3 23.0625 1 C26.51511307 -0.49302187 28.7976815 0.02436768 32.375 1 C34.4164556 2.82272821 35.1914316 4.41394933 36.00390625 7.0078125 C36.66889592 9.12817957 37.30510807 11.0503209 38.375 13 C41.25342219 14.49381107 41.25342219 14.49381107 44.375 14 C47.63997334 11.82335111 48.3108799 10.22842784 49.375 6.4375 C50.375 3 50.375 3 52.0625 1 C55.51511307 -0.49302187 57.7976815 0.02436768 61.375 1 C64.07430429 3.26393263 64.33353549 4.69790146 64.8125 8.1875 C64.06483738 14.70284572 61.95158497 19.95041298 57 24.375 C51.76255629 28.36966046 47.41081932 30.56257856 40.75390625 30.37109375 C37.288951 29.83058349 34.4195477 28.47460526 31.3203125 26.875 C29.27451189 25.79489381 29.27451189 25.79489381 26.375 26 C25.14401371 26.62384826 23.93723782 27.29645167 22.75 28 C18.18110872 30.3261326 14.43239799 30.95973724 9.375 30 C1.27431993 27.15871669 -2.92340705 23.28528537 -7.4375 16.125 C-9.03301428 11.92627822 -9.1951719 9.4901037 -8.625 5 C-5.9573351 1.03892181 -4.82598436 0 0 0 Z " fill="#060502" transform="translate(104.625,154)"/>
<path d="M0 0 C3.50182013 1.29697042 5.10262224 3.32203276 7.36328125 6.203125 C10.78335497 9.95785987 14.97691751 12.9221466 19 16 C15.26525474 20.94304519 10.9717981 25.02056287 6.25 29 C5.69038574 29.5050708 5.13077148 30.0101416 4.55419922 30.53051758 C1.09842998 33.34743386 -1.26947889 34.34745949 -5.76171875 33.99609375 C-11.30068735 33.10291534 -16.6856557 31.64481762 -22.0625 30.0625 C-23.01060547 29.79759766 -23.95871094 29.53269531 -24.93554688 29.25976562 C-30.11040748 27.76480589 -30.11040748 27.76480589 -32 27 C-32.33 26.34 -32.66 25.68 -33 25 C-31.92363281 24.26136719 -30.84726562 23.52273438 -29.73828125 22.76171875 C-21.31774013 16.93062466 -13.24942609 10.92451336 -5.5390625 4.1796875 C-3 2 -3 2 0 0 Z " fill="#747476" transform="translate(361,424)"/>
<path d="M0 0 C3.32845907 0.98621009 4.3339598 1.35760889 6.375 4 C7.02205799 7.11453086 6.88448298 10.26307363 6.875 13.4375 C6.90335938 14.29666016 6.93171875 15.15582031 6.9609375 16.04101562 C6.98041496 22.31762552 6.98041496 22.31762552 4.0703125 25.59765625 C0.37412026 27.52074758 -1.67615023 27.17002956 -5.625 26 C-8.41443398 23.45058708 -8.63966933 21.87689983 -9.09375 18.06640625 C-9.12020119 16.56530106 -9.13012837 15.06382946 -9.125 13.5625 C-9.15335938 12.81162109 -9.18171875 12.06074219 -9.2109375 11.28710938 C-9.22574928 7.07685952 -8.95173924 5.43029896 -6.3203125 1.96484375 C-3.625 0 -3.625 0 0 0 Z " fill="#080703" transform="translate(195.625,135)"/>
<path d="M0 0 C2.15625 1.4375 2.15625 1.4375 4 4 C4.59463425 7.17643906 4.55833322 10.27708945 4.5 13.5 C4.51546875 14.35464844 4.5309375 15.20929688 4.546875 16.08984375 C4.50816113 22.29374216 4.50816113 22.29374216 2.15625 25.5625 C-0.80174382 27.53449588 -2.51468971 27.58088505 -6 27 C-8.15625 25.5625 -8.15625 25.5625 -10 23 C-10.59463425 19.82356094 -10.55833322 16.72291055 -10.5 13.5 C-10.51546875 12.64535156 -10.5309375 11.79070312 -10.546875 10.91015625 C-10.50816113 4.70625784 -10.50816113 4.70625784 -8.15625 1.4375 C-5.19825618 -0.53449588 -3.48531029 -0.58088505 0 0 Z " fill="#030201" transform="translate(73,135)"/>
<path d="M0 0 C2.95961929 2.95961929 3.26314009 6.59475234 4.125 10.5625 C4.30675781 11.33658203 4.48851562 12.11066406 4.67578125 12.90820312 C5.88748458 18.37908919 6.16786553 23.39888692 6 29 C-2.63430711 24.80181411 -10.90138982 18.44414881 -17 11 C-17 10.34 -17 9.68 -17 9 C-16.19175781 8.68546875 -15.38351562 8.3709375 -14.55078125 8.046875 C-13.48214844 7.61890625 -12.41351563 7.1909375 -11.3125 6.75 C-10.25675781 6.33234375 -9.20101563 5.9146875 -8.11328125 5.484375 C-4.98077741 3.9908349 -2.61180529 2.26776415 0 0 Z " fill="#7F7F80" transform="translate(445,468)"/>
<path d="M0 0 C3.64515965 1.24607585 6.65181629 3.23450224 9.81640625 5.37890625 C15.98012527 9.49021725 20.29936807 12.08126723 27.75390625 12.94140625 C27.75390625 13.27140625 27.75390625 13.60140625 27.75390625 13.94140625 C13.92425441 14.34749717 0.44569155 12.67237227 -13.24609375 10.94140625 C-12.08072262 9.77603512 -10.91356989 8.61239974 -9.73828125 7.45703125 C-8.71178231 6.41440929 -7.7181012 5.33877601 -6.75390625 4.23828125 C-2.86414627 -0.07471686 -2.86414627 -0.07471686 0 0 Z " fill="#E9C052" transform="translate(392.24609375,451.05859375)"/>
</svg>
