<?xml version="1.0" encoding="UTF-8" standalone="no"?>
<!DOCTYPE svg PUBLIC "-//W3C//DTD SVG 1.1//EN" "http://www.w3.org/Graphics/SVG/1.1/DTD/svg11.dtd">
<svg width="100%" height="100%" viewBox="0 0 1182 1182" version="1.1" xmlns="http://www.w3.org/2000/svg" xmlns:xlink="http://www.w3.org/1999/xlink" xml:space="preserve" xmlns:serif="http://www.serif.com/" style="fill-rule:evenodd;clip-rule:evenodd;stroke-linejoin:round;stroke-miterlimit:2;">
    <g transform="matrix(0.209029,0,0,0.209029,590.551181,590.551181)">
        <g transform="matrix(1,0,0,1,-1066.666667,-1066.666667)">
            <clipPath id="_clip1">
                <rect x="0" y="0" width="2133.333" height="2133.333"/>
            </clipPath>
            <g clip-path="url(#_clip1)">
                <g transform="matrix(4.166667,0,0,4.166667,219.726563,-2.376302)">
                    <path d="M0,0C8.647,2.177 15.971,10.65 22.266,16.57C23.155,17.346 23.155,17.346 24.062,18.137C33.919,27.125 40.81,40.053 47.266,51.57C48.062,51.429 48.858,51.287 49.678,51.142C58.965,49.638 67.97,49.26 77.361,49.31C79.763,49.32 82.164,49.31 84.566,49.297C93.989,49.29 102.966,49.917 112.266,51.57C113.174,49.956 113.174,49.956 114.102,48.309C123.837,31.24 139.33,5.617 159.723,-0.121C162.998,-0.309 165.039,0.423 167.766,2.195C169.697,5.253 169.711,7.008 169.266,10.57C167.834,14.832 164.956,16.337 161.266,18.695C147.74,27.72 136.837,40.636 130.266,55.57C130.911,55.815 131.557,56.06 132.223,56.312C139.026,59.011 145.527,62.129 152.016,65.508C152.807,65.914 153.598,66.321 154.413,66.74C159.76,69.561 164.538,72.806 169.266,76.57C169.657,75.518 170.049,74.467 170.453,73.383C170.73,72.651 171.007,71.918 171.293,71.164C171.986,69.315 172.664,67.46 173.332,65.602C177.882,53.229 183.626,42.547 192.266,32.57C192.881,31.811 193.495,31.052 194.129,30.27C204.836,17.434 219.564,8.804 235.266,3.57C236.654,3.087 236.654,3.087 238.07,2.594C254.484,-2.166 274.247,-1.112 290.266,4.57C291.449,4.983 292.632,5.395 293.852,5.82C307.555,11.144 318.373,19.857 328.266,30.57C328.92,30.389 329.575,30.207 330.25,30.02C335.328,28.621 340.413,27.253 345.516,25.945C346.449,25.706 347.382,25.466 348.344,25.219C372.683,19.817 399.162,24.46 420.324,37.531C440.6,51.587 454.216,71.367 458.869,95.799C462.511,121.221 457.064,145.574 442.266,166.57C441.795,167.308 441.325,168.045 440.84,168.805C439.421,170.803 438.311,172.215 436.266,173.57C433.699,173.762 431.286,173.567 428.723,173.367C425.579,173.627 424.659,174.558 422.516,176.82C421.973,177.465 421.43,178.109 420.871,178.773C419.266,180.57 419.266,180.57 415.828,182.57C414.983,183.23 414.137,183.89 413.266,184.57C413.099,188.029 413.099,188.029 413.266,191.57C410.402,196.221 406.675,198.27 401.828,200.445C401.095,200.782 400.362,201.119 399.607,201.465C370.54,214.427 370.54,214.427 357.266,213.57C359.535,216.691 361.952,219.227 364.891,221.695C400.96,252.783 423.911,303.778 428.055,350.601C430.391,383.489 425.551,418.829 408.473,447.59C406.072,451.806 404.983,454.18 405.973,459.043C407.083,462.286 408.288,465.456 409.552,468.64C412.624,476.954 413.538,485.83 413.703,494.633C413.725,495.335 413.748,496.038 413.771,496.761C413.748,501.832 412.412,504.658 409.266,508.57C405.649,511.923 402.77,512.884 397.953,513.133C383.914,512.49 371.311,498.32 362.266,488.57C357.266,483.068 357.266,483.068 357.266,480.57C356.455,480.6 356.455,480.6 355.627,480.63C347.555,480.786 339.636,479.872 331.641,478.883C330.554,478.75 330.554,478.75 329.445,478.614C303.283,475.38 277.735,469.479 253.266,459.57C252.645,459.328 252.024,459.085 251.384,458.835C229.271,450.154 209.453,436.875 192.266,420.57C191.771,420.108 191.276,419.646 190.767,419.17C176.441,405.717 161.986,388.735 156.266,369.57C155.595,370.098 155.595,370.098 154.911,370.637C134.884,386.345 109.24,405.796 82.266,402.57C75.318,400.671 69.588,397.03 65.566,391.039C60.867,382.713 59.527,375.016 62.039,365.703C65.442,356.529 70.522,351.79 79.266,347.57C81.669,346.738 84.087,345.949 86.516,345.195C98.819,341.375 109.322,334.962 118.266,325.57C118.596,324.91 118.926,324.25 119.266,323.57C118.448,323.332 118.448,323.332 117.613,323.09C112.372,321.468 107.945,319.4 103.309,316.461C101.36,315.423 101.36,315.423 99.461,315.699C96.18,317.001 93.08,318.63 89.953,320.258C68.675,331.017 47.147,336.687 23.266,336.82C21.885,336.851 21.885,336.851 20.477,336.883C10.328,336.94 1.733,334.688 -5.734,327.57C-11.774,320.747 -13.217,313.899 -13.043,304.891C-12.324,297.158 -9.399,291.265 -3.668,286.039C2.967,280.999 9.023,279.433 17.266,279.57C28.56,280.162 28.56,280.162 39.266,277.57C37.539,276.878 37.539,276.878 35.777,276.172C1.936,262.401 -31.329,242.081 -46.277,206.95C-51.32,194.641 -53.276,182.81 -53.172,169.508C-53.169,168.833 -53.166,168.159 -53.163,167.464C-52.988,141.159 -45.447,113.855 -28.078,93.453C-25.315,91.233 -24.315,91.147 -20.859,91.508C-20.037,91.617 -19.215,91.727 -18.367,91.84C-12.704,91.26 -8.453,85.509 -4.734,81.57C-4.074,80.91 -3.414,80.25 -2.734,79.57C-2.776,78.642 -2.817,77.714 -2.859,76.758C-2.693,72.513 -1.754,71.572 1.266,68.57C4.59,66.609 8.061,65.029 11.578,63.445C12.503,63.016 13.428,62.587 14.381,62.145C19.307,59.869 24.266,57.68 29.266,55.57C24.385,46.461 19.211,38.302 12.266,30.57C11.63,29.852 10.995,29.134 10.34,28.395C5.717,23.465 0.557,19.954 -5.195,16.43C-7.758,14.553 -8.717,13.527 -9.734,10.57C-10.18,7.008 -10.165,5.253 -8.234,2.195C-5.445,0.383 -3.336,-0.185 0,0Z" style="fill:rgb(2,2,1);fill-rule:nonzero;"/>
                </g>
                <g transform="matrix(4.166667,0,0,4.166667,569.53125,265.885417)">
                    <path d="M0,0C1.044,-0.013 2.089,-0.026 3.165,-0.039C10.088,-0.047 16.549,0.711 23.312,2.188C22.336,6.094 21.359,10 20.383,13.906C20.206,14.614 20.03,15.323 19.848,16.052C19.494,17.463 19.136,18.872 18.773,20.28C14.197,36.275 14.197,36.275 16.875,51.875C20.38,53.762 22.546,53.234 26.312,52.188C28.26,49.267 28.605,48.342 28.953,45.039C29.051,44.208 29.149,43.377 29.25,42.521C29.353,41.627 29.456,40.733 29.562,39.812C30.586,31.828 32.157,24.177 34.375,16.438C34.632,15.527 34.89,14.616 35.155,13.678C36.568,8.928 36.568,8.928 37.312,7.188C39.312,6.188 39.312,6.188 42.48,7.121C43.825,7.61 45.164,8.113 46.5,8.625C47.212,8.897 47.924,9.169 48.657,9.45C60.89,14.267 71.57,20.259 81.312,29.188C82.238,30.02 83.164,30.853 84.117,31.711C102.122,48.718 112.727,73.288 113.5,97.996C113.994,124.689 106.54,144.888 88.102,164.496C79.189,173.096 69.092,180.121 58.312,186.188C56.619,187.154 56.619,187.154 54.891,188.141C46.46,192.746 37.655,195.995 28.562,199.062C27.438,199.444 26.314,199.825 25.156,200.219C7.613,205.945 -8.841,206.963 -26.688,202.188C-27.327,202.027 -27.967,201.866 -28.626,201.7C-51.146,196.005 -72.09,185.383 -89.688,170.188C-90.505,169.515 -91.322,168.842 -92.164,168.148C-108.429,154.3 -119.858,134.706 -121.688,113.188C-123.31,85.59 -117.018,62.27 -100.355,40.082C-98.436,37.391 -98.436,37.391 -98.902,34.766C-99.141,33.997 -99.379,33.229 -99.625,32.438C-100.039,29.863 -100.039,29.863 -99.688,27.188C-96.159,22.699 -91.854,18.501 -86.512,16.285C-84.688,16.188 -84.688,16.188 -81.688,18.188C-76.177,18.919 -72.68,16.992 -68,14.438C-55.02,7.658 -55.02,7.658 -48.688,6.188C-47.697,6.518 -46.708,6.848 -45.688,7.188C-43.901,11.364 -42.857,15.803 -41.688,20.188C-41.406,21.241 -41.125,22.294 -40.836,23.379C-39.681,28.041 -38.71,32.645 -38.199,37.422C-38.122,38.141 -38.045,38.86 -37.965,39.6C-37.825,41.001 -37.701,42.404 -37.597,43.808C-37.283,47.075 -36.826,49.001 -34.848,51.656C-32.636,53.545 -32.636,53.545 -29.062,53.125C-25.432,52.512 -25.432,52.512 -23.688,49.188C-21.701,36.753 -26.464,22.277 -29.82,10.359C-30.563,7.643 -31.178,4.955 -31.688,2.188C-21.31,-0.066 -10.573,0.069 0,0Z" style="fill:rgb(244,200,85);fill-rule:nonzero;"/>
                </g>
                <g transform="matrix(4.166667,0,0,4.166667,1100,625)">
                    <path d="M0,0C21.382,17.879 36.597,43.035 40,71C40.045,73.368 40.04,75.737 39.992,78.105C39.967,80.075 39.967,80.075 39.941,82.084C39.91,84.145 39.875,86.205 39.829,88.265C39.786,90.274 39.764,92.284 39.742,94.293C39.72,95.484 39.698,96.676 39.675,97.903C40.031,101.293 40.54,102.671 43,105C46.5,105.667 46.5,105.667 50,105C53.198,102.015 53.9,98.734 54.145,94.473C54.295,75.766 53.018,59.746 47,42C46.333,40 45.667,38 45,36C52.625,35.543 59.634,37.15 67,39C68.001,39.249 68.001,39.249 69.022,39.504C77.474,41.664 85.543,44.415 93.5,48C94.236,48.32 94.973,48.64 95.732,48.969C100.689,51.311 100.689,51.311 102.055,54.336C100.974,106.974 57.231,164.31 20.836,199.277C16.752,203.109 12.425,206.574 8,210C6.936,210.864 5.873,211.73 4.812,212.598C-3.508,219.352 -12.241,225.252 -21.321,230.938C-22.896,231.934 -24.449,232.966 -26,234C-27.945,233.988 -27.945,233.988 -30,233C-33.097,228.956 -35.517,224.443 -38,220C-38.934,218.339 -38.934,218.339 -39.887,216.645C-44.019,208.891 -44.019,208.891 -43.949,205.613C-42.602,201.903 -40.506,198.907 -38.25,195.688C-35.423,191.639 -32.875,187.842 -30.875,183.312C-28.835,179.956 -26.328,179.261 -22.607,178.294C-20.478,177.808 -18.346,177.357 -16.207,176.918C-2.315,174.05 10.229,167.053 21,158C21.74,157.406 22.48,156.811 23.242,156.199C30.161,150.417 37.643,142.536 41,134C40.924,130.385 40.924,130.385 40,127C36.987,124.991 35.527,124.394 31.961,125.004C27.35,127.346 24.78,132.807 22,137C12.811,149.85 -2.273,158.18 -17,163L-20,163C-19.125,156.25 -19.125,156.25 -18,154C-17.372,148.582 -17.372,148.582 -19.562,143.938C-23.163,142.553 -25.337,142.868 -29,144C-31.447,148.089 -32.811,152.333 -34.188,156.875C-43.832,186.854 -65.922,212.473 -93.837,226.953C-116.736,238.482 -116.736,238.482 -126,237C-129.609,235.195 -131.581,233.582 -133.938,230.312C-135.358,225.885 -135.402,222.444 -134,218C-130.914,212.759 -126.535,211.288 -120.898,209.824C-105.615,205.478 -93.353,196.837 -82,186C-81.386,185.461 -80.773,184.922 -80.141,184.367C-70.339,175.42 -61.028,159.941 -58.875,146.875C-58.641,143.095 -58.641,143.095 -60.5,140.875C-64.229,139.57 -66.249,139.727 -70,141C-71.695,143.723 -72.797,146.066 -74,149C-75.07,151.174 -76.153,153.34 -77.25,155.5C-77.771,156.542 -79.602,160.203 -80,161C-95.153,157.761 -108.26,148.71 -120,139C-121.415,137.927 -121.415,137.927 -122.859,136.832C-123.566,136.227 -124.272,135.623 -125,135L-125,133C-123.395,132.832 -123.395,132.832 -121.758,132.66C-83.954,128.036 -44.008,108.06 -20,78C-7.877,61.773 0.189,42.431 0.098,21.973C0.094,20.687 0.091,19.401 0.088,18.076C0.08,16.738 0.071,15.4 0.062,14.062C0.057,12.697 0.053,11.332 0.049,9.967C0.037,6.644 0.021,3.322 0,0Z" style="fill:rgb(117,117,119);fill-rule:nonzero;"/>
                </g>
                <g transform="matrix(4.166667,0,0,4.166667,1948.968506,217.966715)">
                    <path d="M0,0C3.661,3.001 6.966,6.281 10.248,9.688C10.911,10.333 11.575,10.977 12.259,11.641C24.927,24.736 29.929,42.929 29.789,60.702C29.201,77.232 23.186,92.96 13.248,106.125C10.735,109.528 10.24,110.221 10.31,114.625C10.619,115.636 10.929,116.647 11.248,117.688C11.248,120.688 11.248,120.688 9.927,122.372C2.559,129.532 2.559,129.532 -1.752,131.688C-4.19,130.938 -4.19,130.938 -6.752,129.688C-12.431,129.157 -15.996,130.497 -20.815,133.25C-36.247,141.454 -53.389,146.028 -70.752,147.688C-71.898,147.814 -73.044,147.941 -74.225,148.071C-79.22,147.529 -82.556,145.268 -86.752,142.625C-88.448,141.605 -90.146,140.59 -91.846,139.579C-92.68,139.082 -93.514,138.585 -94.374,138.073C-106.914,130.773 -120.697,126.122 -134.752,122.688C-133.673,119.45 -133.029,118.811 -130.502,116.688C-129.773,116.072 -129.043,115.456 -128.292,114.821C-127.454,114.117 -126.616,113.413 -125.752,112.688C-124.832,111.881 -123.912,111.074 -122.963,110.243C-114.009,102.428 -104.494,95.485 -94.752,88.688C-94.105,88.235 -93.458,87.783 -92.791,87.316C-82.473,80.149 -71.715,73.813 -60.752,67.688C-59.616,67.046 -59.616,67.046 -58.457,66.391C-42.802,57.596 -26.126,50.122 -8.783,45.355C-5.825,44.383 -4.328,43.389 -2.752,40.688C-2.663,37.061 -2.663,37.061 -3.752,33.688C-7.992,30.862 -10.899,31.734 -15.752,32.688C-19.159,33.61 -22.447,34.768 -25.752,36C-26.697,36.35 -27.642,36.7 -28.616,37.06C-70.802,53.113 -122.405,81.336 -151.186,117.489C-154.597,120.1 -159.312,119.32 -163.405,119.235C-166.897,118.664 -168.057,118.31 -170.19,115.563C-171.605,113.213 -171.761,111.866 -171.627,109.114C-170.367,104.177 -168.372,99.653 -166.315,95C-165.867,93.982 -165.419,92.964 -164.957,91.916C-154.706,68.933 -142.208,47.773 -125.752,28.688C-124.949,27.743 -124.146,26.798 -123.319,25.825C-109.639,10.145 -93.947,-1.455 -74.752,-9.312C-73.683,-9.768 -72.613,-10.225 -71.51,-10.695C-49.121,-18.679 -19.065,-14.274 0,0Z" style="fill:rgb(180,231,239);fill-rule:nonzero;"/>
                </g>
                <g transform="matrix(4.166667,0,0,4.166667,587.5,270.833333)">
                    <path d="M0,0C1.854,-0.027 3.708,-0.047 5.562,-0.062C6.595,-0.074 7.628,-0.086 8.691,-0.098C12.192,0.006 15.545,0.447 19,1C18.023,4.906 17.047,8.812 16.07,12.719C15.894,13.427 15.717,14.135 15.536,14.865C15.182,16.275 14.824,17.684 14.46,19.092C9.885,35.087 9.885,35.087 12.562,50.688C16.068,52.575 18.234,52.046 22,51C23.947,48.079 24.292,47.155 24.641,43.852C24.739,43.02 24.837,42.189 24.938,41.333C25.041,40.439 25.144,39.546 25.25,38.625C26.274,30.64 27.844,22.989 30.062,15.25C30.32,14.339 30.577,13.429 30.843,12.491C32.256,7.741 32.256,7.741 33,6C35,5 35,5 38.168,5.934C39.512,6.423 40.852,6.925 42.188,7.438C43.255,7.846 43.255,7.846 44.344,8.262C56.577,13.08 67.257,19.072 77,28C77.926,28.833 78.851,29.665 79.805,30.523C97.81,47.531 108.414,72.101 109.188,96.809C109.682,123.502 102.227,143.7 83.789,163.309C74.881,171.905 64.782,178.949 54,185C53.325,185.379 52.651,185.758 51.956,186.148C49.817,187.333 47.663,188.484 45.5,189.625C44.829,189.993 44.158,190.36 43.467,190.739C40.587,192.208 38.652,193.113 35.414,192.551C32.261,190.525 29.57,188.146 26.875,185.562C26.307,185.025 25.74,184.488 25.155,183.935C23.989,182.827 22.827,181.716 21.668,180.601C20.156,179.15 18.626,177.718 17.094,176.289C0.802,160.7 -10.36,141.078 -18,120L-18,118C-16.733,117.326 -15.461,116.661 -14.188,116C-13.48,115.629 -12.772,115.257 -12.043,114.875C-10,114 -10,114 -7,114C-5.606,114.627 -4.233,115.299 -2.875,116C1.886,118.149 5.826,119.026 11,118C18.173,115.246 23.151,111.138 26.312,104.062C27.364,99.38 28.065,95.704 25.438,91.5C22.962,89.675 22.962,89.675 19.375,90.062C15.745,90.675 15.745,90.675 14,94C13.711,95.155 13.422,96.31 13.125,97.5C12,101 12,101 10.25,103C7.046,104.424 5.294,104.121 2,103C-0.215,100.211 -1.12,97.639 -2.25,94.25C-3.706,90.667 -3.706,90.667 -7.438,89.812C-10.96,89.701 -10.96,89.701 -13.312,91.5C-15.367,94.543 -16.083,97.463 -17,101C-17.99,101.99 -17.99,101.99 -19,103L-22,103C-29.339,67.094 -18.097,30.965 0,0Z" style="fill:rgb(246,232,104);fill-rule:nonzero;"/>
                </g>
                <g transform="matrix(4.166667,0,0,4.166667,1720.833333,1004.166667)">
                    <path d="M0,0C5.684,2.596 8.907,7.581 12.7,12.377C13.924,13.905 15.193,15.398 16.465,16.887C17.198,17.79 17.932,18.694 18.688,19.625C19.351,20.422 20.015,21.218 20.699,22.039C24.137,29.865 19.948,39.756 17.625,47.5C17.275,48.67 16.925,49.84 16.564,51.045C5.625,86.419 -12.634,119.123 -37,147C-37.462,147.529 -37.924,148.059 -38.399,148.604C-41.517,152.148 -44.728,155.598 -48,159C-48.548,159.57 -49.096,160.14 -49.661,160.727C-57.043,168.357 -64.562,175.527 -73,182C-73.601,182.466 -74.201,182.933 -74.82,183.414C-81.765,188.797 -88.788,194.066 -96.188,198.812C-97.192,199.458 -98.196,200.104 -99.23,200.77C-102.558,202.248 -103.6,202.203 -107,201C-109.55,199.869 -112.019,198.703 -114.5,197.438C-115.196,197.085 -115.892,196.733 -116.61,196.371C-135.049,186.902 -135.049,186.902 -137,183C-136.273,182.527 -135.546,182.054 -134.797,181.566C-120.461,172.138 -107.018,161.679 -94.336,150.117C-92.231,148.209 -90.094,146.35 -87.938,144.5C-80.719,138.199 -74.204,131.288 -68,124C-67.201,123.09 -66.402,122.18 -65.578,121.242C-34.902,86.06 -13.873,44.32 0,0Z" style="fill:rgb(246,232,104);fill-rule:nonzero;"/>
                </g>
                <g transform="matrix(4.166667,0,0,4.166667,1287.5,775)">
                    <path d="M0,0C7.625,-0.457 14.634,1.15 22,3C22.667,3.166 23.335,3.333 24.022,3.504C32.474,5.664 40.543,8.415 48.5,12C49.236,12.32 49.973,12.64 50.732,12.969C55.689,15.311 55.689,15.311 57.055,18.336C55.974,70.974 12.231,128.31 -24.164,163.277C-28.248,167.109 -32.575,170.574 -37,174C-38.064,174.864 -39.127,175.73 -40.188,176.598C-48.508,183.352 -57.241,189.252 -66.321,194.938C-67.896,195.934 -69.449,196.966 -71,198C-72.945,197.988 -72.945,197.988 -75,197C-78.097,192.956 -80.517,188.443 -83,184C-83.934,182.339 -83.934,182.339 -84.887,180.645C-89.019,172.891 -89.019,172.891 -88.949,169.613C-87.602,165.903 -85.506,162.907 -83.25,159.688C-80.423,155.639 -77.875,151.842 -75.875,147.312C-73.835,143.956 -71.328,143.261 -67.607,142.294C-65.478,141.808 -63.346,141.357 -61.207,140.918C-47.315,138.05 -34.771,131.053 -24,122C-23.26,121.406 -22.52,120.811 -21.758,120.199C-14.847,114.424 -7.342,106.534 -4,98C-4.295,94.756 -4.801,91.732 -5.656,88.59C-6.073,85.452 -5.459,83.875 -4.188,81C-3.83,80.175 -3.473,79.35 -3.105,78.5C-2.741,77.675 -2.376,76.85 -2,76C-1.528,74.65 -1.528,74.65 -1.047,73.273C0,71 0,71 2.938,69.625C6.249,67.868 7.073,66.677 8.418,63.252C9.631,58.559 9.392,53.753 9.312,48.938C9.3,47.819 9.288,46.701 9.276,45.549C9.037,31.514 6.491,19.242 2,6C1.333,4 0.667,2 0,0Z" style="fill:rgb(243,200,85);fill-rule:nonzero;"/>
                </g>
                <g transform="matrix(4.166667,0,0,4.166667,1487.5,120.833333)">
                    <path d="M0,0C3.435,2.899 6.753,5.893 10,9C8.796,12.613 7.88,12.981 4.75,15C-20.661,32.255 -38.883,56.611 -54,83C-55.019,79.812 -54.946,77.645 -54.25,74.387C-54.058,73.48 -53.865,72.573 -53.667,71.639C-53.447,70.665 -53.227,69.691 -53,68.688C-52.773,67.671 -52.546,66.655 -52.312,65.609C-48.765,50.196 -44.61,34.985 -37.401,20.844C-35.133,16.212 -34.502,13.166 -36,8C-39.496,5.67 -40.887,5.412 -45,6C-49.499,10.378 -51.47,16.216 -53.75,21.938C-54.183,23.023 -54.616,24.108 -55.063,25.226C-63.885,48.079 -69.068,72.314 -72.125,96.562C-72.459,99.168 -72.796,101.774 -73.133,104.379C-73.276,105.509 -73.419,106.639 -73.567,107.803C-73.984,110.881 -74.472,113.939 -75,117C-75.928,116.196 -76.856,115.391 -77.812,114.562C-81.038,111.803 -84.291,109.079 -87.562,106.375C-88.451,105.64 -89.339,104.905 -90.254,104.148C-92.955,101.922 -92.955,101.922 -96.074,100.281C-100.075,97.162 -101.336,93.728 -103.25,89.125C-107.464,79.594 -112.565,70.435 -120,63C-121.119,44.299 -111.703,26.133 -99.918,12.191C-74.537,-16.349 -31.264,-23.623 0,0Z" style="fill:rgb(153,222,233);fill-rule:nonzero;"/>
                </g>
                <g transform="matrix(4.166667,0,0,4.166667,1583.333333,883.333333)">
                    <path d="M0,0C3.904,1.361 6.691,3.126 9.875,5.75C10.736,6.456 11.597,7.163 12.484,7.891C15.679,10.569 18.854,13.265 22,16C16.893,35.669 9.926,54.749 1,73C0.569,73.892 0.138,74.784 -0.307,75.704C-14.776,105.382 -34.346,131.348 -56.75,155.438C-57.352,156.088 -57.953,156.738 -58.573,157.407C-62.807,161.913 -67.302,165.986 -72,170C-73.06,170.937 -74.119,171.876 -75.176,172.816C-84.666,181.166 -94.697,188.686 -105,196C-105.612,196.439 -106.223,196.878 -106.854,197.33C-108.367,198.406 -109.902,199.455 -111.438,200.5C-112.642,201.32 -112.642,201.32 -113.871,202.156C-116,203 -116,203 -117.904,202.266C-120.15,200.909 -121.814,199.445 -123.672,197.594C-124.336,196.932 -125,196.271 -125.684,195.59C-126.366,194.9 -127.047,194.211 -127.75,193.5C-128.447,192.81 -129.145,192.121 -129.863,191.41C-130.851,190.418 -130.851,190.418 -131.859,189.406C-132.462,188.801 -133.065,188.196 -133.687,187.572C-135,186 -135,186 -135,184C-132.653,182.415 -130.306,180.946 -127.875,179.5C-115.033,171.654 -103.312,162.916 -92,153C-90.759,151.927 -90.759,151.927 -89.492,150.832C-78.055,140.773 -67.369,130.012 -58,118C-57.397,117.287 -56.793,116.574 -56.172,115.84C-44.78,102.27 -35.108,86.739 -27,71C-26.357,69.753 -26.357,69.753 -25.701,68.48C-15.14,47.744 -7.015,26.022 -1.648,3.371C-1,1 -1,1 0,0Z" style="fill:rgb(131,131,132);fill-rule:nonzero;"/>
                </g>
                <g transform="matrix(4.166667,0,0,4.166667,1858.333333,1200)">
                    <path d="M0,0C2.499,2.23 3.709,4.214 4.938,7.316C5.444,8.588 5.444,8.588 5.961,9.885C6.304,10.768 6.647,11.652 7,12.562C7.343,13.419 7.686,14.276 8.039,15.158C15.506,34.095 15.506,34.095 11.32,44.32C10.6,45.927 9.867,47.528 9.125,49.125C8.729,49.989 8.332,50.853 7.924,51.743C0.952,66.743 -6.622,81.357 -16,95C-16.455,95.67 -16.91,96.34 -17.378,97.03C-24.064,106.847 -31.152,116.088 -39,125C-39.918,126.067 -39.918,126.067 -40.855,127.156C-42.551,129.122 -44.272,131.063 -46,133C-46.773,133.878 -47.547,134.756 -48.344,135.66C-55.773,143.952 -63.691,151.594 -72,159C-72.619,159.563 -73.237,160.126 -73.875,160.706C-75.662,162.316 -77.479,163.881 -79.312,165.438C-80.101,166.156 -80.101,166.156 -80.906,166.889C-84.194,169.579 -86.622,170.284 -90.727,169.969C-96.285,169.103 -101.672,167.649 -107.062,166.062C-108.011,165.798 -108.959,165.533 -109.936,165.26C-115.11,163.765 -115.11,163.765 -117,163C-117.33,162.34 -117.66,161.68 -118,161C-116.924,160.261 -115.847,159.523 -114.738,158.762C-105.97,152.692 -97.566,146.441 -89.569,139.38C-88.445,138.392 -87.315,137.412 -86.179,136.438C-72.772,124.886 -60.483,112.258 -50,98C-49.261,97.056 -48.523,96.113 -47.762,95.141C-29.529,71.694 -16.049,44.85 -6,17C-5.642,16.021 -5.285,15.041 -4.916,14.032C-3.215,9.373 -1.53,4.718 0,0Z" style="fill:rgb(131,131,132);fill-rule:nonzero;"/>
                </g>
                <g transform="matrix(4.166667,0,0,4.166667,966.601563,1169.69401)">
                    <path d="M0,0C3.804,2.403 6.35,5.327 7.828,9.648C7.89,10.185 7.952,10.721 8.016,11.273C7.095,11.579 6.175,11.884 5.227,12.199C0.665,15.146 0.116,18.408 -1.359,23.461C-11.421,54.682 -32.48,81.006 -61.822,96.227C-84.72,107.756 -84.72,107.756 -93.984,106.273C-97.594,104.469 -99.565,102.855 -101.922,99.586C-103.342,95.159 -103.386,91.717 -101.984,87.273C-98.899,82.032 -94.519,80.562 -88.883,79.098C-73.6,74.752 -61.338,66.111 -49.984,55.273C-49.371,54.735 -48.757,54.196 -48.125,53.641C-38.366,44.732 -28.924,29.194 -26.922,16.148C-26.568,12.379 -26.568,12.379 -28.488,10.531C-28.982,10.116 -29.476,9.701 -29.984,9.273C-28.21,3.465 -24.947,1.33 -19.734,-1.477C-12.564,-3.867 -6.781,-3.343 0,0Z" style="fill:rgb(131,131,132);fill-rule:nonzero;"/>
                </g>
                <g transform="matrix(4.166667,0,0,4.166667,1933.333333,1466.666667)">
                    <path d="M0,0L1,0C1.759,30.932 -1.823,56.922 -15.062,85.25C-15.462,86.107 -15.861,86.965 -16.272,87.848C-21.85,99.37 -28.595,107.338 -40.684,112.055C-54.33,115.945 -71.088,111.759 -85,110C-80.696,105.628 -76.231,101.441 -71.75,97.25C-63.13,89.147 -54.763,81.185 -47.367,71.922C-45.337,69.415 -43.243,66.985 -41.113,64.563C-24.351,45.34 -11.595,22.604 0,0Z" style="fill:rgb(245,231,104);fill-rule:nonzero;"/>
                </g>
                <g transform="matrix(4.166667,0,0,4.166667,1462.5,820.833333)">
                    <path d="M0,0C5.935,0.748 9.939,3.01 15,6C14.538,12.785 13.416,18.957 11.375,25.438C11.109,26.297 10.843,27.157 10.57,28.043C1.215,57.83 -11.787,85.592 -30,111C-30.66,111.99 -31.32,112.98 -32,114L-34,114C-34.421,86.717 -34.421,86.717 -32,74C-31.882,73.336 -31.763,72.672 -31.642,71.987C-27.042,46.577 -16.62,19.993 0,0Z" style="fill:rgb(246,232,104);fill-rule:nonzero;"/>
                </g>
                <g transform="matrix(4.166667,0,0,4.166667,1383.333333,1579.166667)">
                    <path d="M0,0C2.224,2.057 3.662,3.956 5.016,6.66C5.377,7.367 5.738,8.074 6.11,8.802C6.674,9.921 6.674,9.921 7.25,11.062C10.367,17.124 13.662,22.764 17.785,28.215C19,30 19,30 19,32C19.66,32.33 20.32,32.66 21,33C-8.579,59.392 -8.579,59.392 -21,64C-25.577,63.712 -29.479,61.489 -33.5,59.438C-34.544,58.909 -34.544,58.909 -35.61,58.371C-54.049,48.902 -54.049,48.902 -56,45C-55.273,44.527 -54.546,44.054 -53.797,43.566C-39.47,34.143 -26.039,23.689 -13.359,12.141C-10.507,9.553 -7.605,7.026 -4.691,4.508C-3.066,3.059 -1.523,1.556 0,0Z" style="fill:rgb(243,200,85);fill-rule:nonzero;"/>
                </g>
                <g transform="matrix(4.166667,0,0,4.166667,1325,1395.833333)">
                    <path d="M0,0C2,1 2,1 2.794,3.237C3.603,6.406 4.407,9.575 5.188,12.75C5.473,13.848 5.759,14.947 6.053,16.078C6.318,17.14 6.583,18.203 6.855,19.297C7.099,20.27 7.343,21.243 7.594,22.245C8.136,25.923 7.837,28.716 5.793,31.852C-9.549,48.799 -28.082,62.967 -47.002,75.658C-48.629,76.751 -50.233,77.88 -51.828,79.02C-52.545,79.343 -53.262,79.667 -54,80C-57.179,78.79 -59.283,76.974 -61.672,74.594C-62.336,73.932 -63,73.271 -63.684,72.59C-64.366,71.9 -65.047,71.211 -65.75,70.5C-66.447,69.81 -67.145,69.121 -67.863,68.41C-68.851,67.418 -68.851,67.418 -69.859,66.406C-70.462,65.801 -71.065,65.196 -71.687,64.572C-73,63 -73,63 -73,61C-70.653,59.415 -68.306,57.946 -65.875,56.5C-53.033,48.654 -41.312,39.916 -30,30C-29.172,29.285 -28.345,28.569 -27.492,27.832C-22.204,23.18 -17.179,18.278 -12.188,13.312C-11.553,12.682 -10.918,12.052 -10.264,11.403C-6.626,7.752 -3.236,4.013 0,0Z" style="fill:rgb(116,116,118);fill-rule:nonzero;"/>
                </g>
                <g transform="matrix(4.166667,0,0,4.166667,947.867839,631.933594)">
                    <path d="M0,0C6.456,3.434 11.578,8.238 14.199,15.148C15.222,22.309 14.717,27.375 10.512,33.336C4.366,40.589 -3.479,43.648 -12.797,44.715C-22.662,45.075 -29.829,42.824 -37.426,36.523C-42.413,31.739 -44.551,27.371 -44.988,20.461C-44.851,14.868 -42.568,10.889 -39.488,6.336C-38.902,6.832 -38.315,7.329 -37.711,7.84C-35.442,9.675 -35.442,9.675 -31.926,9.273C-28.524,8.623 -28.524,8.623 -26.613,6.648C-25.27,3.888 -24.834,1.374 -24.488,-1.664C-16.508,-4.324 -7.659,-3.153 0,0Z" style="fill:rgb(254,161,171);fill-rule:nonzero;"/>
                </g>
                <g transform="matrix(4.166667,0,0,4.166667,222.135417,620.572917)">
                    <path d="M0,0C0.741,0.005 1.481,0.009 2.244,0.014C4.059,0.025 5.873,0.043 7.688,0.062C7.869,0.677 8.051,1.292 8.238,1.926C8.49,2.734 8.741,3.542 9,4.375C9.244,5.176 9.487,5.976 9.738,6.801C10.75,9.21 11.632,10.465 13.688,12.062C17.645,12.483 20.29,12.153 23.688,10.062C27.94,15.138 29.182,18.753 29.086,25.301C28.221,31.295 25.033,36.071 20.461,39.953C10.751,46.643 1.244,47.482 -10.312,46.062C-19.18,43.434 -25.031,38.581 -29.688,30.75C-31.241,24.072 -31.09,17.906 -27.645,11.879C-23.586,6.344 -17.81,2.25 -11.152,0.492C-7.429,-0.071 -3.754,-0.044 0,0Z" style="fill:rgb(254,161,171);fill-rule:nonzero;"/>
                </g>
                <g transform="matrix(4.166667,0,0,4.166667,495.361328,1191.943359)">
                    <path d="M0,0C3.128,1.382 5.182,3.734 7.488,6.184C11.197,10.016 14.913,13.642 19.113,16.934C15.694,20.984 11.986,22.551 7.176,24.434C6.419,24.735 5.662,25.037 4.882,25.348C-10.912,31.552 -25.482,34.08 -42.387,34.309C-43.521,34.335 -44.656,34.361 -45.825,34.388C-52.132,34.401 -56.161,34.296 -60.887,29.934C-63.529,25.883 -64.589,22.75 -63.887,17.934C-61.753,14.047 -59.668,11.252 -55.887,8.934C-53.347,8.565 -53.347,8.565 -50.477,8.562C-49.413,8.548 -48.349,8.533 -47.254,8.518C-46.122,8.511 -44.99,8.504 -43.824,8.496C-29.539,8.176 -12.857,-0.453 0,0Z" style="fill:rgb(131,131,132);fill-rule:nonzero;"/>
                </g>
                <g transform="matrix(4.166667,0,0,4.166667,435.9375,641.666667)">
                    <path d="M0,0C4.794,1.42 4.794,1.42 6.375,4C6.924,6.045 7.377,8.075 7.75,10.16C8.299,12.389 8.299,12.389 11.375,14C14.452,13.918 14.452,13.918 17.375,13C19.563,10.083 19.563,10.083 20.25,6.5C21.375,3 21.375,3 23.062,1C26.515,-0.493 28.798,0.024 32.375,1C34.416,2.823 35.191,4.414 36.004,7.008C36.669,9.128 37.305,11.05 38.375,13C41.253,14.494 41.253,14.494 44.375,14C47.64,11.823 48.311,10.228 49.375,6.438C50.375,3 50.375,3 52.062,1C55.515,-0.493 57.798,0.024 61.375,1C64.074,3.264 64.334,4.698 64.812,8.188C64.065,14.703 61.952,19.95 57,24.375C51.763,28.37 47.411,30.563 40.754,30.371C37.289,29.831 34.42,28.475 31.32,26.875C29.275,25.795 29.275,25.795 26.375,26C25.144,26.624 23.937,27.296 22.75,28C18.181,30.326 14.432,30.96 9.375,30C1.274,27.159 -2.923,23.285 -7.438,16.125C-9.033,11.926 -9.195,9.49 -8.625,5C-5.957,1.039 -4.826,0 0,0Z" style="fill:rgb(6,5,2);fill-rule:nonzero;"/>
                </g>
                <g transform="matrix(4.166667,0,0,4.166667,1504.166667,1766.666667)">
                    <path d="M0,0C3.502,1.297 5.103,3.322 7.363,6.203C10.783,9.958 14.977,12.922 19,16C15.265,20.943 10.972,25.021 6.25,29C5.69,29.505 5.131,30.01 4.554,30.531C1.098,33.347 -1.269,34.347 -5.762,33.996C-11.301,33.103 -16.686,31.645 -22.062,30.062C-23.011,29.798 -23.959,29.533 -24.936,29.26C-30.11,27.765 -30.11,27.765 -32,27C-32.33,26.34 -32.66,25.68 -33,25C-31.924,24.261 -30.847,23.523 -29.738,22.762C-21.318,16.931 -13.249,10.925 -5.539,4.18C-3,2 -3,2 0,0Z" style="fill:rgb(116,116,118);fill-rule:nonzero;"/>
                </g>
                <g transform="matrix(4.166667,0,0,4.166667,815.104167,562.5)">
                    <path d="M0,0C3.328,0.986 4.334,1.358 6.375,4C7.022,7.115 6.884,10.263 6.875,13.438C6.903,14.297 6.932,15.156 6.961,16.041C6.98,22.318 6.98,22.318 4.07,25.598C0.374,27.521 -1.676,27.17 -5.625,26C-8.414,23.451 -8.64,21.877 -9.094,18.066C-9.12,16.565 -9.13,15.064 -9.125,13.562C-9.153,12.812 -9.182,12.061 -9.211,11.287C-9.226,7.077 -8.952,5.43 -6.32,1.965C-3.625,0 -3.625,0 0,0Z" style="fill:rgb(8,7,3);fill-rule:nonzero;"/>
                </g>
                <g transform="matrix(4.166667,0,0,4.166667,304.166667,562.5)">
                    <path d="M0,0C2.156,1.438 2.156,1.438 4,4C4.595,7.176 4.558,10.277 4.5,13.5C4.515,14.355 4.531,15.209 4.547,16.09C4.508,22.294 4.508,22.294 2.156,25.562C-0.802,27.534 -2.515,27.581 -6,27C-8.156,25.562 -8.156,25.562 -10,23C-10.595,19.824 -10.558,16.723 -10.5,13.5C-10.515,12.645 -10.531,11.791 -10.547,10.91C-10.508,4.706 -10.508,4.706 -8.156,1.438C-5.198,-0.534 -3.485,-0.581 0,0Z" style="fill:rgb(3,2,1);fill-rule:nonzero;"/>
                </g>
                <g transform="matrix(4.166667,0,0,4.166667,1854.166667,1950)">
                    <path d="M0,0C2.96,2.96 3.263,6.595 4.125,10.562C4.307,11.337 4.489,12.111 4.676,12.908C5.887,18.379 6.168,23.399 6,29C-2.634,24.802 -10.901,18.444 -17,11L-17,9C-16.192,8.685 -15.384,8.371 -14.551,8.047C-13.482,7.619 -12.414,7.191 -11.312,6.75C-10.257,6.332 -9.201,5.915 -8.113,5.484C-4.981,3.991 -2.612,2.268 0,0Z" style="fill:rgb(127,127,128);fill-rule:nonzero;"/>
                </g>
                <g transform="matrix(4.166667,0,0,4.166667,1634.358724,1879.410807)">
                    <path d="M0,0C3.645,1.246 6.652,3.235 9.816,5.379C15.98,9.49 20.299,12.081 27.754,12.941L27.754,13.941C13.924,14.347 0.446,12.672 -13.246,10.941C-12.081,9.776 -10.914,8.612 -9.738,7.457C-8.712,6.414 -7.718,5.339 -6.754,4.238C-2.864,-0.075 -2.864,-0.075 0,0Z" style="fill:rgb(233,192,82);fill-rule:nonzero;"/>
                </g>
            </g>
        </g>
    </g>
    <g transform="matrix(1.080637,-0.072626,0.068393,1.017653,-73.295976,12.514718)">
        <path d="M312.397,428.473C312.898,430.571 311.702,432.706 309.726,433.239C307.75,433.772 305.739,432.501 305.237,430.403C300.205,409.357 298.583,390.512 301.219,375.515C303.076,364.951 307.034,356.226 313.273,349.781C323.465,339.254 339.975,334.635 364.366,339.033C381.026,342.037 393.789,343.888 403.924,344.068C413.404,344.237 420.445,342.962 426.193,339.579C431.907,336.217 436.287,330.795 440.648,322.998C445.342,314.607 449.931,303.581 455.707,289.445C470.06,254.312 487.968,234.943 507.771,231.292C527.626,227.63 550.036,239.586 573.567,268.938C594.318,294.822 609.139,306.222 624.876,305.852C640.829,305.476 657.253,293.314 680.821,273.689C707.694,251.313 730.551,245.956 746.763,254.359C762.951,262.751 773.272,285.308 774.297,320.701C774.759,336.673 777.432,347.876 782.558,355.783C788.389,364.778 797.383,369.285 809.313,372.027C822.151,374.979 838.246,375.834 857.542,377.216C878.181,378.695 896.161,389.957 904.926,407.623C913.613,425.131 913.414,449.141 897.078,476.454C887.151,493.049 880.393,505.638 876.627,515.703C873.211,524.831 872.29,531.634 874.072,537.486C875.866,543.378 880.314,548.165 886.949,553.422C894.267,559.221 904.151,565.397 916.375,573.436C943.62,591.353 958.058,619.516 955.411,644.633C953.613,661.69 944.072,677.531 925.111,688.071C905.512,698.964 889.446,705.882 878.586,713.366C872.12,717.823 867.589,722.375 865.686,728.459C864.096,733.543 864.374,739.604 866.521,747.344C868.873,755.819 873.434,766.114 880.433,779.011C895.787,807.301 898.639,827 894.638,840.886C890.761,854.346 880.501,862.813 867.674,868.447C849.926,876.243 827.188,878.564 812.311,883.155C810.354,883.759 808.303,882.562 807.734,880.484C807.165,878.405 808.292,876.227 810.25,875.623C824.917,871.096 847.352,868.885 864.851,861.199C875.523,856.511 884.349,849.79 887.575,838.591C891.186,826.056 887.894,808.465 874.034,782.928C866.664,769.348 861.912,758.483 859.436,749.561C856.757,739.904 856.693,732.33 858.676,725.987C861.062,718.357 866.456,712.375 874.565,706.787C885.568,699.204 901.828,692.159 921.685,681.122C938.066,672.017 946.517,658.496 948.07,643.761C950.449,621.192 936.967,596.203 912.486,580.104C897.477,570.234 885.938,563.073 878.222,556.07C872.545,550.919 868.832,545.769 867.044,539.9C865.246,533.996 865.357,527.299 867.723,518.963C870.941,507.625 878.486,492.907 890.842,472.249C905.332,448.024 906.096,426.808 898.391,411.279C890.766,395.91 875,386.329 857.044,385.042C837.321,383.629 820.873,382.71 807.75,379.693C793.718,376.467 783.333,370.811 776.474,360.23C770.722,351.357 767.433,338.865 766.914,320.942C766.002,289.45 757.927,268.875 743.523,261.408C729.141,253.953 709.218,260.012 685.379,279.862C660.101,300.91 642.15,313.29 625.04,313.693C607.714,314.102 590.788,302.52 567.942,274.022C546.69,247.512 526.967,235.713 509.034,239.02C491.049,242.336 475.519,260.658 462.483,292.567C456.553,307.081 451.818,318.389 446.999,327.004C441.847,336.213 436.523,342.468 429.773,346.44C416.843,354.049 398.185,353.087 363.13,346.766C341.85,342.929 327.315,346.219 318.423,355.403C311.853,362.19 308.503,372.079 307.598,384.119C306.641,396.866 308.445,411.945 312.397,428.473Z"/>
    </g>
    <g transform="matrix(0.997779,-0.066609,0.066609,0.997779,-78.409745,-82.287031)">
        <g transform="matrix(-0.149467,0.988767,-0.988767,-0.149467,890.581597,354.727254)">
            <text x="292.723px" y="560.401px" style="font-family:'BradleyHandITC', 'Bradley Hand ITC', cursive;font-size:158.333px;">B</text>
        </g>
        <g transform="matrix(0.082965,0.996552,-0.996552,0.082965,919.253394,330.211357)">
            <text x="280.204px" y="664.588px" style="font-family:'BradleyHandITC', 'Bradley Hand ITC', cursive;font-size:158.333px;">e</text>
        </g>
        <g transform="matrix(0.235636,0.971841,-0.971841,0.235636,918.642754,274.560596)">
            <text x="284.778px" y="721.279px" style="font-family:'BradleyHandITC', 'Bradley Hand ITC', cursive;font-size:158.333px;">e</text>
        </g>
        <g transform="matrix(0.570272,0.821456,-0.821456,0.570272,803.69064,98.37178)">
            <text x="307.823px" y="817.342px" style="font-family:'BradleyHandITC', 'Bradley Hand ITC', cursive;font-size:158.333px;">m</text>
        </g>
        <g transform="matrix(0.765482,0.643457,-0.643457,0.765482,688.191991,-31.857135)">
            <text x="387.8px" y="928.183px" style="font-family:'BradleyHandITC', 'Bradley Hand ITC', cursive;font-size:158.333px;">y</text>
        </g>
        <g transform="matrix(0.923162,0.38441,-0.38441,0.923162,427.853591,-114.860342)">
            <text x="501.243px" y="1012.822px" style="font-family:'BradleyHandITC', 'Bradley Hand ITC', cursive;font-size:158.333px;">g</text>
        </g>
        <g transform="matrix(0.982164,0.188025,-0.188025,0.982164,207.497902,-91.490406)">
            <text x="585.996px" y="1047.979px" style="font-family:'BradleyHandITC', 'Bradley Hand ITC', cursive;font-size:158.333px;">u</text>
        </g>
        <g transform="matrix(0.999073,0.043054,-0.043054,0.999073,46.438851,-28.079331)">
            <text x="675.101px" y="1064.071px" style="font-family:'BradleyHandITC', 'Bradley Hand ITC', cursive;font-size:158.333px;">e</text>
        </g>
        <g transform="matrix(0.997136,-0.07563,0.07563,0.997136,-78.584599,58.402378)">
            <text x="731.811px" y="1066.777px" style="font-family:'BradleyHandITC', 'Bradley Hand ITC', cursive;font-size:158.333px;">s</text>
        </g>
        <g transform="matrix(0.97865,-0.205534,0.205534,0.97865,-200.952166,187.195243)">
            <text x="800.576px" y="1060.868px" style="font-family:'BradleyHandITC', 'Bradley Hand ITC', cursive;font-size:158.333px;">t</text>
        </g>
    </g>
</svg>
